<svg width="306" height="100" viewBox="0 0 306 100" fill="none" xmlns="http://www.w3.org/2000/svg">
<g opacity="0.8">
<path fill-rule="evenodd" clip-rule="evenodd" d="M132.671 56.3402C134.092 54.9197 134.774 53.2152 134.774 51.2256C134.774 49.2369 134.092 47.5323 132.671 46.1687C131.251 44.7482 129.546 44.0664 127.5 44.0664C125.399 44.0664 123.637 44.7482 122.161 46.1687C120.74 47.5323 120 49.2369 120 51.2256C120 53.2152 120.74 54.9197 122.161 56.3402C123.637 57.7048 125.399 58.3857 127.5 58.3857C129.546 58.3857 131.251 57.7048 132.671 56.3402ZM112.045 76.5111V36.908H120.511V40.6581C121.363 38.1571 124.716 36.3966 129.035 36.3966C133.069 36.3966 136.478 37.8171 139.149 40.714C141.876 43.555 143.24 47.0778 143.24 51.2256C143.24 55.3752 141.876 58.8971 139.149 61.7949C136.478 64.6359 133.069 66.0563 129.035 66.0563C124.716 66.0563 121.363 64.2958 120.511 61.7949V76.5111H112.045Z" fill="black"/>
<path fill-rule="evenodd" clip-rule="evenodd" d="M147.61 65.5465V36.9077H156.076V40.83C157.383 37.9305 160.451 36.2827 164.372 36.2827C164.94 36.2827 165.679 36.3404 166.588 36.4541V44.4088C165.735 44.2383 164.77 44.1247 163.747 44.1247C158.917 44.1247 156.076 46.852 156.076 51.568V65.5465H147.61Z" fill="black"/>
<path fill-rule="evenodd" clip-rule="evenodd" d="M178.807 56.5676C180.227 57.9881 181.99 58.7268 184.091 58.7268C186.193 58.7268 187.955 57.9881 189.375 56.5676C190.796 55.0912 191.536 53.3289 191.536 51.2266C191.536 49.1234 190.796 47.3629 189.375 45.9424C187.955 44.4642 186.193 43.7273 184.091 43.7273C181.99 43.7273 180.227 44.4642 178.807 45.9424C177.386 47.3629 176.648 49.1234 176.648 51.2266C176.648 53.3289 177.386 55.1472 178.807 56.5676ZM195.342 40.4868C198.467 43.3846 200.001 46.9651 200.001 51.2266C200.001 55.4881 198.467 59.0677 195.342 62.0223C192.216 64.921 188.466 66.3974 184.091 66.3974C179.66 66.3974 175.91 64.921 172.783 62.0223C169.717 59.0677 168.181 55.4881 168.181 51.2266C168.181 46.9651 169.717 43.3846 172.783 40.4868C175.91 37.5331 179.66 36.0549 184.091 36.0549C188.466 36.0549 192.216 37.5331 195.342 40.4868Z" fill="black"/>
<path fill-rule="evenodd" clip-rule="evenodd" d="M204.434 65.5465V36.9077H212.901V40.4882C213.98 37.989 216.877 36.2827 220.344 36.2827C224.208 36.2827 226.821 37.8168 228.128 40.83C229.719 37.8168 232.9 36.2827 237.674 36.2827C244.209 36.2827 247.846 40.7155 247.846 48.1588V65.5465H239.38V49.1816C239.38 45.8293 237.846 43.7837 235.118 43.7837C232.334 43.7837 230.344 46.1142 230.344 49.4657V65.5465H221.878V49.1816C221.878 45.8293 220.344 43.7837 217.617 43.7837C214.889 43.7837 212.901 46.1142 212.901 49.4657V65.5465H204.434Z" fill="black"/>
<path fill-rule="evenodd" clip-rule="evenodd" d="M58 65.959H99.959V24H58V65.959ZM67.6156 56.3434H90.3434V33.6156H67.6156V56.3434Z" fill="url(#paint0_linear_473_248)"/>
</g>
<defs>
<linearGradient id="paint0_linear_473_248" x1="58" y1="24" x2="99.959" y2="65.959" gradientUnits="userSpaceOnUse">
<stop stop-color="#4854A2"/>
<stop offset="1" stop-color="#772088"/>
</linearGradient>
</defs>
</svg>
