<svg width="0" height="0" class="hidden">
  <symbol fill="none" xmlns="http://www.w3.org/2000/svg" viewBox="0 0 306 100" id="bitrix">
    <g opacity="0.8">
      <path d="M63.7773 78.6612C58.6448 77.5984 53.8556 75.2275 50.0959 71.8884C40.4437 63.3158 37.4606 49.8489 42.5596 37.8664C43.8118 34.9238 45.8476 31.9374 48.3699 29.343L50.5936 27.0557L50.7505 40.4431C50.9006 53.2573 50.9344 53.9028 51.5406 55.5176C52.7532 58.748 54.0533 60.8048 56.2913 63.0337C62.0725 68.7911 70.5524 70.228 77.761 66.6717C84.5366 63.3289 88.8082 56.0605 88.3119 48.7187C87.9784 43.7871 86.32 40.1708 82.7393 36.5678C80.0317 33.8433 76.8462 32.0637 73.3781 31.338C69.8495 30.5997 70.0188 30.4918 70.0188 33.4785V36.057L71.9533 36.4134C79.4449 37.7938 84.3997 45.1504 82.8381 52.5747C82.3394 54.9459 81.227 57.0398 79.4412 58.9687C76.7274 61.8999 72.9094 63.301 69.5755 63.2945C64.063 63.2839 59.4599 60.1514 57.2289 55.519C57.2289 55.519 56.6445 54.195 56.4567 53.3767C55.3522 48.565 56.0581 38.4358 56.0581 38.4358L55.9726 23.6253L56.8469 23.1731C57.3278 22.9245 57.789 22.721 57.8718 22.721C57.9546 22.721 58.0597 29.5235 58.1054 37.8376C58.1054 37.8376 57.0437 48.7363 58.3557 52.9129C58.545 53.5155 58.9044 54.5461 58.9044 54.5461C60.0546 56.8894 61.898 58.9506 64.2932 60.0852C66.1114 60.9464 67.0268 61.3361 69.7167 61.3361C71.4741 61.3361 73.0311 60.7814 74.8226 59.9574C76.9344 58.9862 79.357 56.411 80.2523 54.0597C82.7188 47.5817 79.2843 40.6122 72.6678 38.6688C69.9637 37.8745 70.0188 37.8308 70.0188 40.7711V43.3395L71.3169 43.6867C75.9957 44.9381 77.4233 51.2094 73.7503 54.4317C72.4526 55.5702 71.2833 56.0735 69.2377 56.0735C67.052 56.0735 64.9539 54.7505 63.8753 52.7214C63.2274 51.5025 63.1727 50.3463 63.1727 49.8168C63.1727 44.9255 63.0668 36.1287 63.0668 36.1287L62.9793 21.039L63.651 20.8721C64.0204 20.7804 65.5137 20.5533 66.9693 20.3675C71.9058 19.7376 79.2092 21.3531 84.1157 24.1604C90.805 27.9877 95.8666 34.5625 97.974 42.1619C98.6989 44.7759 98.7797 45.536 98.7797 49.741C98.7797 53.9273 98.6971 54.7125 97.9875 57.2694C95.1212 67.5979 87.83 74.9814 77.4045 78.1128C75.2104 78.7718 74.1826 78.8975 70.3109 78.9801C67.1866 79.0467 65.1615 78.9479 63.7773 78.6612V78.6612Z" fill="#C60C30"></path>
      <path d="M264.854 47.3994C265.22 47.6841 265.551 48.0043 265.9 48.3067C265.9 46.5277 265.9 44.7487 265.9 42.9697C263.808 41.6355 261.525 41.2085 259.137 41.6532C254.275 42.5605 251.259 46.67 251.538 51.9003C251.8 56.6858 254.292 60.0482 258.405 61.0444C261.002 61.6671 263.53 61.4002 265.9 60.0659C265.9 58.2869 265.9 56.5079 265.9 54.7289C265.464 55.0669 265.046 55.4405 264.575 55.7252C262.693 56.8815 260.741 57.1484 258.841 55.8675C256.976 54.6044 256.558 52.6475 256.889 50.5305C257.534 46.4032 261.63 44.8199 264.854 47.3994Z" fill="black"></path>
      <path d="M168.961 60.7421C167.27 60.7421 165.649 60.7421 163.976 60.7421C163.976 54.5333 163.976 48.3424 163.976 42.1159C165.58 42.1159 167.148 42.1159 168.821 42.1159C168.821 45.745 168.821 49.3564 168.821 52.95C168.891 52.9856 168.961 53.0034 169.048 53.039C171.366 49.3742 173.684 45.7273 175.985 42.0803C177.675 42.0803 179.296 42.0803 180.969 42.0803C180.969 48.289 180.969 54.48 180.969 60.7243C179.383 60.7243 177.815 60.7243 176.142 60.7243C176.142 57.0951 176.142 53.5015 176.142 49.9079C176.054 49.8723 175.985 49.8545 175.898 49.819C173.58 53.4659 171.261 57.1307 168.961 60.7421Z" fill="black"></path>
      <path d="M220.079 42.1335C220.079 45.7805 220.079 49.3741 220.079 52.9677C220.149 52.9855 220.201 53.0033 220.271 53.0388C222.572 49.3919 224.872 45.7627 227.19 42.0979C228.863 42.0979 230.502 42.0979 232.21 42.0979C232.21 48.3245 232.21 54.4976 232.21 60.7419C230.606 60.7419 229.02 60.7419 227.33 60.7419C227.33 57.1128 227.33 53.5192 227.33 49.9256C227.26 49.9078 227.19 49.8722 227.103 49.8544C224.802 53.4836 222.502 57.1305 220.201 60.7775C218.563 60.7775 216.942 60.7775 215.234 60.7775C215.234 54.5866 215.234 48.3956 215.234 42.1513C216.785 42.1335 218.354 42.1335 220.079 42.1335Z" fill="black"></path>
      <path d="M151.304 49.3919C152.437 49.3919 153.518 49.3029 154.581 49.4097C155.801 49.552 157.073 49.7121 158.223 50.1391C160.193 50.8862 161.117 52.4873 161.204 54.6221C161.291 56.8637 160.663 58.7672 158.607 59.8168C157.701 60.2794 156.637 60.653 155.626 60.6886C152.524 60.7953 149.422 60.7241 146.25 60.7241C146.25 54.5332 146.25 48.36 146.25 42.0979C150.711 42.0979 155.191 42.0979 159.705 42.0979C159.705 43.5389 159.705 44.9621 159.705 46.4743C156.934 46.4743 154.162 46.4743 151.322 46.4743C151.304 47.4705 151.304 48.36 151.304 49.3919ZM151.287 57.1305C152.507 57.0594 153.657 57.0772 154.755 56.8993C155.679 56.757 156.097 56.0454 156.097 55.0847C156.097 54.124 155.679 53.4302 154.755 53.2879C153.622 53.11 152.472 53.1278 151.304 53.0566C151.287 54.462 151.287 55.7073 151.287 57.1305Z" fill="black"></path>
      <path d="M235.416 42.0979C237.09 42.0979 238.711 42.0979 240.436 42.0979C240.436 44.6241 240.436 47.1147 240.436 49.6054C240.506 49.6231 240.575 49.6587 240.645 49.6765C241.534 48.4134 242.423 47.1503 243.294 45.905C244.183 44.6597 245.055 43.3966 245.978 42.0979C247.913 42.0979 249.865 42.0979 251.991 42.0979C249.639 45.1578 247.373 48.111 245.072 51.1175C247.425 54.3019 249.761 57.4508 252.166 60.7241C249.97 60.7241 247.896 60.7241 245.769 60.7241C244.079 58.1802 242.371 55.5828 240.663 53.0033C240.61 53.021 240.541 53.0388 240.488 53.0566C240.488 55.5828 240.488 58.109 240.488 60.7063C238.78 60.7063 237.142 60.7063 235.434 60.7063C235.416 54.551 235.416 48.3778 235.416 42.0979Z" fill="black"></path>
      <path d="M198.555 60.7241C198.555 54.5154 198.555 48.36 198.555 42.1513C198.695 42.1157 198.834 42.0623 198.973 42.0623C201.71 42.0623 204.429 42.009 207.165 42.1157C210.633 42.2402 212.934 44.7664 212.951 48.2711C212.969 51.8291 210.651 54.3553 207.165 54.5332C206.05 54.5865 204.917 54.551 203.697 54.551C203.697 56.668 203.697 58.6783 203.697 60.7241C201.954 60.7241 200.315 60.7241 198.555 60.7241ZM203.697 50.477C205.056 50.3881 206.503 50.8862 207.392 49.463C207.88 48.698 207.88 47.7552 207.322 47.0258C206.363 45.7627 204.986 46.243 203.697 46.1541C203.697 47.6306 203.697 48.9827 203.697 50.477Z" fill="black"></path>
      <path d="M131.628 43.0408C131.628 44.7487 131.628 46.4387 131.628 48.3067C130.094 46.7945 128.456 45.8516 126.347 46.2786C125.249 46.4921 124.343 47.0436 123.68 47.9687C122.112 50.0857 122.216 53.4836 123.907 55.2982C125.755 57.2729 128.369 57.1305 131.593 54.8356C131.593 56.5791 131.593 58.2513 131.593 59.9592C128.439 62.3964 122.652 61.667 119.742 58.447C116.5 54.8356 116.43 48.2711 119.62 44.5886C122.548 41.2084 128.142 40.4613 131.628 43.0408Z" fill="black"></path>
      <path d="M187.224 60.7063C187.224 56.0098 187.224 51.3488 187.224 46.5633C185.865 46.5633 184.575 46.5633 183.216 46.5633C183.216 45.0333 183.216 43.6101 183.216 42.0979C187.573 42.0979 191.913 42.0979 196.305 42.0979C196.305 43.5389 196.305 44.9799 196.305 46.4743C195.015 46.4743 193.743 46.4743 192.383 46.4743C192.383 51.242 192.383 55.9208 192.383 60.6886C190.641 60.7063 188.967 60.7063 187.224 60.7063Z" fill="black"></path>
      <path d="M106.512 42.0803C109.021 42.0803 111.462 42.0803 113.971 42.0803C113.971 48.289 113.971 54.4622 113.971 60.7065C112.455 60.7065 110.939 60.7065 109.318 60.7065C109.318 55.9565 109.318 51.1888 109.318 46.3321C108.324 46.3321 107.453 46.3321 106.512 46.3321C106.512 44.8911 106.512 43.5391 106.512 42.0803Z" fill="black"></path>
      <path d="M141.823 51.5267C141.823 53.2346 140.534 54.5511 138.86 54.5511C137.152 54.5511 135.845 53.2168 135.88 51.4556C135.897 49.7477 137.205 48.4669 138.895 48.4669C140.551 48.5024 141.823 49.8189 141.823 51.5267Z" fill="black"></path>
    </g>
  </symbol>
  <symbol fill="none" xmlns="http://www.w3.org/2000/svg" viewBox="0 0 306 100" id="virtuemart">
    <g opacity="0.8">
      <path d="M62.9848 84.2567H58.8351L43.043 41.3183H51.2848L61.0829 69.9055C76.1833 30.8287 110.361 14.2873 141.657 9.1001L142.579 10.541C122.004 15.3824 103.041 23.2208 87.9986 38.6671L87.5952 38.5518L87.0188 38.4942H85.8661L85.2898 38.5518L84.7134 38.6671L84.1947 38.84L83.676 39.0705L83.2149 39.3587L82.7538 39.7045L81.9469 40.5114L81.6011 40.9725L81.3129 41.4336L81.0824 41.9523L80.9095 42.471L80.7942 43.0474L80.7366 43.6237V44.7764L80.7942 45.3528L80.9095 45.9291L81.0824 46.4479L81.14 46.5631C80.7366 47.0819 80.3331 47.6006 79.9297 48.1769H77.7971V51.174C71.9183 60.1651 66.8464 71.0582 62.9848 84.2567Z" fill="#1E6EAA"></path>
      <path fill-rule="evenodd" clip-rule="evenodd" d="M171.455 64.8336H153.588C153.703 66.8508 154.394 68.407 155.662 69.502C156.93 70.5971 158.602 71.1734 160.734 71.1734C163.386 71.1734 165.403 70.4818 166.786 69.0986L169.034 73.5365C166.959 75.2079 163.904 76.0148 159.812 76.0148C156.008 76.0148 152.954 74.8621 150.763 72.672C148.573 70.4242 147.421 67.3119 147.421 63.335C147.421 59.4158 148.631 56.1882 151.109 53.7675C153.53 51.3469 156.469 50.0789 159.87 50.0789C163.501 50.0789 166.44 51.174 168.63 53.3065C170.821 55.4966 171.916 58.2055 171.916 61.606C171.973 62.3552 171.8 63.3927 171.455 64.8336ZM86.5575 40.8572C87.4797 40.8572 88.2866 41.203 88.9782 41.837C89.6122 42.471 89.958 43.2779 89.958 44.2577C89.958 45.2375 89.6122 45.9868 88.9782 46.6784C88.3442 47.3124 87.5373 47.6582 86.5575 47.6582C85.6353 47.6582 84.8284 47.3124 84.1368 46.6784C83.5028 46.0444 83.157 45.2375 83.157 44.2577C83.157 43.2779 83.5028 42.5286 84.1368 41.837C84.8284 41.203 85.5777 40.8572 86.5575 40.8572ZM83.5028 55.3237H80.2752V50.54H89.3816V75.5537H83.5028V55.3237ZM103.445 55.3813C102.061 55.3813 100.909 55.5542 99.8137 56.8222C98.7762 58.0326 98.2575 59.5311 98.2575 61.3178V75.5537H92.4363V50.54H98.2575V52.8454C99.8713 51.001 102.061 50.54 104.77 50.54C106.211 50.54 107.364 50.2518 108.344 50.5976H108.978V45.5257L114.799 43.3932V50.6552H121.657V55.3813H114.799V66.3321C114.799 68.1188 115.087 69.3868 115.663 70.136C116.24 70.8853 117.22 71.2311 118.603 71.2311C119.986 71.2311 121.312 70.8276 122.522 70.0784V75.4385C121.139 75.8996 119.237 76.1301 116.701 76.1301C114.223 76.1301 112.263 75.4385 110.937 73.9976C109.612 72.6143 108.92 70.5971 108.92 68.0035V55.3237C106.73 55.2661 105.923 55.3813 103.445 55.3813ZM140.331 75.6114V73.4789C139.524 74.1705 138.372 74.8045 136.931 75.2656C135.49 75.7843 134.164 76.0148 132.954 76.0148C127.133 76.0148 124.251 72.9025 124.251 66.7355V50.54H130.072V66.3321C130.072 69.5597 131.513 71.1158 134.395 71.1158C135.721 71.1158 136.931 70.77 138.084 70.0784C139.236 69.3868 139.986 68.5799 140.331 67.7153V50.54H146.153V75.6114H140.331ZM153.76 60.4533H166.037C165.633 56.8222 163.616 54.9779 159.985 54.9779C156.7 54.9779 154.625 56.8222 153.76 60.4533Z" fill="#1E6EAA"></path>
      <path d="M207.015 75.6114H201.079L197.563 57.1681L190.647 76.0725H188.456L181.598 57.1681L177.909 75.6114H172.03L178.947 41.3184H182.116L189.551 64.4302L196.814 41.3184H199.983L207.015 75.6114Z" fill="#00AEEF"></path>
      <path d="M224.306 73.0755C223.787 73.94 222.865 74.6316 221.539 75.208C220.214 75.7843 218.83 76.0149 217.389 76.0149C214.681 76.0149 212.606 75.3233 211.05 73.9976C209.493 72.672 208.744 70.7124 208.744 68.2341C208.744 65.3523 209.839 63.0469 212.029 61.4331C214.22 59.8193 217.274 59.0124 221.309 59.0124C222 59.0124 222.807 59.1277 223.729 59.3582C223.729 56.4188 221.885 54.9203 218.139 54.9203C215.949 54.9203 214.104 55.2661 212.606 56.0154L211.338 51.4622C213.355 50.4824 215.718 50.0213 218.485 50.0213C222.288 50.0213 225.113 50.8858 226.899 52.6149C228.686 54.344 229.551 57.6292 229.551 62.4706V67.8307C229.551 71.1735 230.242 73.2484 231.568 74.1129C231.107 74.9774 230.53 75.4962 229.954 75.6691C229.378 75.842 228.686 75.9572 227.937 75.9572C227.072 75.9572 226.323 75.6691 225.689 75.0351C224.997 74.5164 224.536 73.8247 224.306 73.0755ZM223.729 63.7962C222.75 63.6233 222 63.508 221.482 63.508C216.871 63.508 214.565 65.0065 214.565 68.0612C214.565 70.309 215.891 71.404 218.485 71.404C222 71.404 223.729 69.675 223.729 66.1592V63.7962Z" fill="#00AEEF"></path>
      <path fill-rule="evenodd" clip-rule="evenodd" d="M244.017 55.2661C242.634 55.2661 241.481 55.612 240.386 56.8223C239.348 58.0326 238.83 59.5312 238.83 61.3179V75.5538H233.008V50.54H238.83V52.8454C240.443 51.0011 242.634 50.3671 245.342 50.3671C246.783 50.3671 247.936 50.2519 248.916 50.54H250.011V45.4681L255.832 43.3356V50.5977H262.691V55.3238H255.832V66.2745C255.832 68.0612 256.12 69.3292 256.697 70.0784C257.273 70.8277 258.253 71.1735 259.636 71.1735C261.019 71.1735 262.345 70.7701 263.555 70.0208V75.3809C262.172 75.842 260.27 76.0725 257.734 76.0725C255.256 76.0725 253.296 75.3809 251.971 73.94C250.645 72.5568 249.953 70.5395 249.953 67.9459V55.2661C247.533 55.2661 246.668 55.2661 244.017 55.2661Z" fill="#00AEEF"></path>
      <path d="M82.3506 88.4642L82.8693 87.5421C82.9846 87.6573 83.2151 87.7726 83.4457 87.8879C83.6762 88.0031 83.9067 88.0608 84.0796 88.0608C84.3678 88.0608 84.656 88.0032 84.8289 87.8302C85.0018 87.6573 85.1171 87.4268 85.1171 87.1386C85.1171 87.0233 85.0595 86.8504 84.9442 86.7352C84.8289 86.6199 84.656 86.5046 84.4255 86.3317L83.6762 85.9283C83.4457 85.813 83.2728 85.6401 83.1575 85.4672C83.0422 85.2943 82.9846 85.0637 82.9846 84.8332C82.9846 84.3145 83.1575 83.911 83.5609 83.6229C83.9644 83.3347 84.4255 83.1618 85.0018 83.1618C85.4053 83.1618 85.8664 83.277 86.4427 83.5652L85.9816 84.4874C85.6358 84.1992 85.29 84.0263 84.8865 84.0263C84.656 84.0263 84.4255 84.0839 84.1949 84.1992C84.022 84.3145 83.9067 84.4874 83.9067 84.7179C83.9067 84.8908 83.9644 85.0061 84.0796 85.1214C84.1949 85.2366 84.3678 85.3519 84.656 85.5248L85.3476 85.9283C85.5782 86.0435 85.7511 86.2165 85.8664 86.3894C85.9816 86.5623 86.0393 86.7928 86.0393 87.0233C86.0393 87.5997 85.8087 88.0608 85.4053 88.4066C85.0018 88.7524 84.4255 88.9253 83.7915 88.9253C83.3304 88.9253 82.8117 88.7524 82.3506 88.4642Z" fill="#CBCFCE"></path>
      <path d="M92.4943 88.81L93.1283 85.3519C93.1283 85.2366 93.1859 85.0637 93.1859 85.0061C93.1859 84.3721 92.8978 84.0839 92.2638 84.0839C92.0332 84.0839 91.8027 84.1416 91.5145 84.3145C91.2263 84.4298 91.0534 84.6027 90.8805 84.7756L90.1313 88.8677H89.1515L90.4771 81.1445H91.4569L90.9958 83.9687C91.1687 83.7958 91.3992 83.6229 91.6874 83.4499C91.9756 83.3347 92.3214 83.277 92.6096 83.277C93.0707 83.277 93.4741 83.3923 93.7623 83.6805C94.0505 83.9687 94.1657 84.3721 94.1657 84.8332C94.1657 85.0061 94.1657 85.179 94.1081 85.4096L93.4741 88.8677H92.4943V88.81Z" fill="#CBCFCE"></path>
      <path d="M97.105 86.7928C97.105 85.813 97.3932 84.9484 97.9696 84.2568C98.5459 83.5652 99.2952 83.2194 100.16 83.2194C100.851 83.2194 101.312 83.3923 101.658 83.7381C102.004 84.0839 102.177 84.6026 102.177 85.2943C102.177 85.813 102.062 86.3893 101.889 86.9081C101.658 87.4844 101.312 87.9455 100.851 88.2913C100.39 88.6948 99.8139 88.8677 99.1223 88.8677C98.4883 88.8677 97.9696 88.6948 97.6237 88.2913C97.2779 88.0031 97.105 87.4844 97.105 86.7928ZM98.1425 86.7352C98.1425 87.6573 98.5459 88.1184 99.2952 88.1184C99.8715 88.1184 100.333 87.8302 100.678 87.2539C101.024 86.6775 101.197 86.0435 101.197 85.2943C101.197 84.4297 100.794 83.9686 100.044 83.9686C99.641 83.9686 99.2952 84.0839 99.007 84.3721C98.7188 84.6603 98.4883 85.0061 98.373 85.4672C98.2001 85.9283 98.1425 86.3317 98.1425 86.7352Z" fill="#CBCFCE"></path>
      <path d="M105.866 88.5219L105.462 90.9425H104.482L105.577 84.9485C105.635 84.6603 105.635 84.4297 105.635 84.1992C105.635 83.9687 105.635 83.6805 105.577 83.4499L106.557 83.277C106.557 83.3347 106.615 83.5652 106.672 83.9686C106.845 83.7957 107.076 83.6228 107.364 83.4499C107.652 83.3347 107.94 83.2194 108.229 83.2194C108.92 83.2194 109.439 83.3923 109.785 83.7381C110.131 84.0839 110.303 84.6026 110.303 85.2366C110.303 86.2741 110.015 87.1386 109.439 87.8302C108.863 88.5219 108.113 88.8677 107.191 88.8677C106.961 88.8677 106.73 88.81 106.499 88.7524C106.038 88.7524 105.923 88.6371 105.866 88.5219ZM105.981 87.715C106.038 87.8302 106.154 87.8879 106.327 88.0031C106.499 88.0608 106.672 88.1184 106.845 88.1184C107.537 88.1184 108.113 87.8879 108.517 87.3691C108.92 86.9081 109.093 86.2164 109.093 85.4095C109.093 84.9484 108.978 84.6026 108.747 84.3721C108.517 84.1416 108.171 84.0263 107.71 84.0263C107.537 84.0263 107.306 84.0839 107.018 84.2568C106.73 84.3721 106.557 84.545 106.442 84.6603L105.981 87.715Z" fill="#CBCFCE"></path>
      <path d="M113.82 88.5219L113.416 90.9425H112.436L113.531 84.9485C113.589 84.6603 113.589 84.4297 113.589 84.1992C113.589 83.9687 113.589 83.6805 113.531 83.4499L114.511 83.277C114.511 83.3347 114.569 83.5652 114.627 83.9686C114.799 83.7957 115.03 83.6228 115.318 83.4499C115.606 83.277 115.895 83.2194 116.183 83.2194C116.874 83.2194 117.393 83.3923 117.739 83.7381C118.085 84.0839 118.258 84.6026 118.258 85.2366C118.258 86.2741 117.969 87.1386 117.393 87.8302C116.817 88.5219 116.067 88.8677 115.145 88.8677C114.915 88.8677 114.684 88.81 114.454 88.7524C114.05 88.7524 113.935 88.6371 113.82 88.5219ZM113.993 87.715C114.05 87.8302 114.165 87.8879 114.338 88.0031C114.511 88.0608 114.684 88.1184 114.857 88.1184C115.549 88.1184 116.125 87.8879 116.529 87.3691C116.932 86.9081 117.105 86.2164 117.105 85.4095C117.105 84.9484 116.99 84.6026 116.759 84.3721C116.529 84.1416 116.183 84.0263 115.722 84.0263C115.549 84.0263 115.318 84.0839 115.03 84.2568C114.742 84.3721 114.569 84.545 114.454 84.6603L113.993 87.715Z" fill="#CBCFCE"></path>
      <path d="M122.811 81.2022C122.984 81.2022 123.156 81.2598 123.272 81.3751C123.387 81.4903 123.445 81.6632 123.445 81.8361C123.445 82.009 123.387 82.182 123.272 82.2972C123.156 82.4125 122.984 82.4701 122.811 82.4701C122.638 82.4701 122.465 82.4125 122.35 82.2972C122.234 82.182 122.177 82.009 122.177 81.8361C122.177 81.6632 122.234 81.4903 122.35 81.3751C122.465 81.2598 122.638 81.2022 122.811 81.2022ZM121.255 88.81L122.061 84.1416H121.312L121.485 83.3347H123.156L122.177 88.81H121.255Z" fill="#CBCFCE"></path>
      <path d="M129.612 88.81L130.188 85.6401C130.246 85.3519 130.246 85.1214 130.246 84.9484C130.246 84.3721 129.958 84.0839 129.324 84.0839C129.093 84.0839 128.862 84.1415 128.574 84.3145C128.286 84.4297 128.113 84.6026 127.94 84.7755L127.249 88.8677H126.269L127.018 84.7179C127.018 84.6026 127.018 84.4874 127.018 84.3721C127.018 84.0263 126.961 83.7381 126.903 83.4499L127.825 83.277C127.94 83.7957 127.94 84.0263 127.94 84.0839C128.344 83.5652 128.978 83.277 129.727 83.277C130.707 83.277 131.226 83.7957 131.226 84.7755C131.226 84.9484 131.226 85.179 131.168 85.4672L130.592 88.8677H129.612V88.81Z" fill="#CBCFCE"></path>
      <path d="M133.762 90.3085L134.223 89.6169C134.857 89.9051 135.375 90.078 135.779 90.078C136.24 90.078 136.586 90.0204 136.931 89.8475C137.22 89.6746 137.393 89.444 137.393 89.1558C137.393 88.9829 137.335 88.8677 137.22 88.81C137.104 88.6947 136.931 88.6371 136.701 88.5795L135.779 88.4066C135.433 88.2913 135.26 88.1184 135.26 87.8302C135.26 87.5997 135.548 87.3691 136.125 87.1386H135.952C135.548 87.1386 135.202 86.9657 134.914 86.6775C134.626 86.3893 134.453 86.0435 134.453 85.5824C134.453 84.8908 134.684 84.2568 135.145 83.8534C135.606 83.3923 136.182 83.1617 136.931 83.1617C137.45 83.1617 137.854 83.277 138.142 83.5076L138.603 82.9888L139.122 83.5652L138.603 84.0839C138.718 84.1992 138.776 84.4297 138.776 84.7179C138.776 85.2943 138.603 85.813 138.315 86.2164C138.027 86.6199 137.623 86.9081 137.162 87.081C136.701 87.2539 136.47 87.4268 136.47 87.542C136.47 87.6573 136.528 87.7149 136.643 87.7149C136.701 87.7149 136.759 87.7149 136.874 87.7149C136.989 87.7149 137.047 87.7149 137.104 87.7149C137.969 87.7149 138.372 88.1184 138.372 88.8677C138.372 89.444 138.084 89.9627 137.565 90.3085C137.047 90.6543 136.413 90.8273 135.663 90.8273C134.799 90.9425 134.223 90.7696 133.762 90.3085ZM136.759 84.0263C136.355 84.0263 136.009 84.1992 135.779 84.4874C135.548 84.7755 135.375 85.179 135.375 85.5824C135.375 86.3317 135.663 86.6775 136.24 86.6775C136.643 86.6775 136.989 86.5046 137.277 86.1012C137.565 85.7553 137.738 85.3519 137.738 84.8908C137.738 84.6026 137.681 84.3721 137.508 84.2568C137.277 84.0839 137.047 84.0263 136.759 84.0263Z" fill="#CBCFCE"></path>
      <path d="M149.15 83.5076L148.977 84.3145C148.747 84.1416 148.401 84.0263 147.997 84.0263C147.363 84.0263 146.845 84.2568 146.499 84.7755C146.095 85.2943 145.923 85.8706 145.923 86.6199C145.923 87.081 146.038 87.4268 146.326 87.6573C146.557 87.9455 146.845 88.0608 147.191 88.0608C147.709 88.0608 148.17 87.8879 148.631 87.5997L148.516 88.5795C148.055 88.7524 147.594 88.8677 147.075 88.8677C146.384 88.8677 145.865 88.6948 145.519 88.2913C145.173 87.8879 145 87.3691 145 86.7352C145 85.6977 145.289 84.8332 145.865 84.1992C146.441 83.5076 147.191 83.2194 148.055 83.2194C148.401 83.2194 148.804 83.3347 149.15 83.5076Z" fill="#CBCFCE"></path>
      <path d="M156.758 83.6805L156.066 86.8504C156.066 86.9657 156.009 87.1386 156.009 87.3115C156.009 87.8302 156.066 88.3489 156.239 88.81H155.259C155.202 88.6948 155.144 88.5219 155.086 88.2337C154.913 88.4066 154.683 88.5795 154.395 88.6948C154.107 88.81 153.761 88.8677 153.415 88.8677C152.896 88.8677 152.435 88.6948 152.147 88.4066C151.859 88.0608 151.686 87.6573 151.686 87.0233C151.686 86.0435 151.974 85.1214 152.55 84.3721C153.127 83.6228 153.876 83.2194 154.856 83.2194C155.72 83.2194 156.354 83.3923 156.758 83.6805ZM155.663 84.2568C155.547 84.0839 155.259 84.0263 154.741 84.0263C154.222 84.0263 153.703 84.3145 153.3 84.8908C152.896 85.4672 152.666 86.1588 152.666 87.0233C152.666 87.7726 153.012 88.1184 153.646 88.1184C153.991 88.1184 154.28 87.9455 154.568 87.5997C154.856 87.2539 155.086 86.7928 155.202 86.2741L155.663 84.2568Z" fill="#CBCFCE"></path>
      <path d="M163.328 84.3145C163.098 84.1416 162.867 84.0839 162.637 84.0839C162.291 84.0839 161.945 84.2568 161.657 84.545C161.369 84.8908 161.138 85.2366 161.08 85.6977L160.504 88.81H159.467L160.446 83.3347H161.426L161.253 84.1992C161.714 83.5652 162.291 83.2194 162.982 83.2194C163.098 83.2194 163.271 83.2194 163.559 83.277L163.328 84.3145Z" fill="#CBCFCE"></path>
      <path d="M167.19 84.0839H166.556L166.729 83.3347H167.363L167.593 82.182L168.688 81.7785L168.342 83.3347H169.841L169.668 84.0839H168.169L167.593 86.7928C167.535 87.0233 167.535 87.1962 167.535 87.3115C167.535 87.8302 167.766 88.1184 168.285 88.1184C168.515 88.1184 168.803 88.0608 169.092 87.9455L169.034 88.81C168.746 88.9253 168.285 88.9829 167.708 88.9829C167.305 88.9829 167.017 88.8677 166.786 88.6371C166.556 88.4066 166.44 88.0608 166.44 87.6573C166.44 87.5421 166.44 87.4268 166.498 87.3115L167.19 84.0839Z" fill="#CBCFCE"></path>
      <path d="M175.374 88.4642L175.893 87.5421C176.008 87.6573 176.238 87.7726 176.469 87.8879C176.699 88.0031 176.93 88.0608 177.103 88.0608C177.391 88.0608 177.679 88.0032 177.852 87.8302C178.025 87.6573 178.14 87.4268 178.14 87.1386C178.14 87.0233 178.083 86.8504 177.967 86.7352C177.852 86.6199 177.679 86.5046 177.449 86.3317L176.699 85.9283C176.469 85.813 176.296 85.6401 176.181 85.4672C176.065 85.2943 176.008 85.0637 176.008 84.8332C176.008 84.3145 176.181 83.911 176.584 83.6229C176.988 83.3347 177.449 83.1618 178.025 83.1618C178.429 83.1618 178.89 83.277 179.466 83.5652L179.005 84.4874C178.659 84.1992 178.313 84.0263 177.91 84.0263C177.679 84.0263 177.449 84.0839 177.218 84.1992C177.045 84.3145 176.93 84.4874 176.93 84.7179C176.93 84.8908 176.988 85.0061 177.103 85.1214C177.218 85.2366 177.391 85.3519 177.679 85.5248L178.371 85.9283C178.601 86.0435 178.774 86.2165 178.89 86.3894C179.005 86.5623 179.063 86.7928 179.063 87.0233C179.063 87.5997 178.832 88.0608 178.429 88.4066C178.025 88.7524 177.449 88.9253 176.815 88.9253C176.296 88.9253 175.777 88.7524 175.374 88.4642Z" fill="#CBCFCE"></path>
      <path d="M182.06 86.7928C182.06 85.813 182.348 84.9484 182.924 84.2568C183.501 83.5652 184.25 83.2194 185.115 83.2194C185.806 83.2194 186.267 83.3923 186.613 83.7381C186.959 84.0839 187.132 84.6026 187.132 85.2943C187.132 85.813 187.017 86.3893 186.844 86.9081C186.613 87.4844 186.267 87.9455 185.806 88.2913C185.345 88.6948 184.769 88.8677 184.077 88.8677C183.443 88.8677 182.924 88.6948 182.579 88.2913C182.233 88.0031 182.06 87.4844 182.06 86.7928ZM183.097 86.7352C183.097 87.6573 183.501 88.1184 184.25 88.1184C184.826 88.1184 185.287 87.8302 185.633 87.2539C185.979 86.6775 186.152 86.0435 186.152 85.2943C186.152 84.4297 185.749 83.9686 184.999 83.9686C184.596 83.9686 184.25 84.0839 183.962 84.3721C183.674 84.6603 183.443 85.0061 183.328 85.4672C183.155 85.9283 183.097 86.3317 183.097 86.7352Z" fill="#CBCFCE"></path>
      <path d="M194.105 82.009C193.817 81.8938 193.644 81.8938 193.529 81.8938C192.895 81.8938 192.492 82.4125 192.376 83.3923H193.644L193.587 84.0839H192.319L191.454 89.2711C191.397 89.7322 191.166 90.1357 190.763 90.4238C190.417 90.712 189.956 90.8849 189.437 91.0002L189.322 90.4238C189.552 90.3662 189.725 90.2509 189.956 90.0204C190.186 89.7898 190.302 89.5593 190.359 89.3287L191.281 84.1416H190.532L190.647 83.4499H191.397C191.685 81.9514 192.434 81.2022 193.644 81.2022C193.933 81.2022 194.163 81.2598 194.394 81.3751L194.105 82.009Z" fill="#CBCFCE"></path>
      <path d="M197.506 84.0839H196.872L197.045 83.3347H197.679L197.91 82.182L199.005 81.7785L198.659 83.3347H200.157L199.985 84.0839H198.486L197.91 86.7928C197.852 87.0233 197.852 87.1962 197.852 87.3115C197.852 87.8302 198.083 88.1184 198.601 88.1184C198.832 88.1184 199.12 88.0608 199.408 87.9455L199.351 88.81C199.062 88.9253 198.601 88.9829 198.025 88.9829C197.621 88.9829 197.333 88.8677 197.103 88.6371C196.872 88.4066 196.757 88.0608 196.757 87.6573C196.757 87.5421 196.757 87.4268 196.815 87.3115L197.506 84.0839Z" fill="#CBCFCE"></path>
      <path d="M207.765 88.9253H207.534L206.497 85.3519L204.307 88.9253H204.076L203.039 83.3347H204.019L204.595 86.7928L206.612 83.3347H206.843L207.823 86.8505L209.552 83.3347H210.531C209.494 85.5249 208.514 87.4268 207.765 88.9253Z" fill="#CBCFCE"></path>
      <path d="M217.794 83.6805L217.102 86.8504C217.102 86.9657 217.045 87.1386 217.045 87.3115C217.045 87.8302 217.102 88.3489 217.275 88.81H216.295C216.238 88.6948 216.18 88.5219 216.123 88.2337C215.95 88.4066 215.719 88.5795 215.431 88.6948C215.143 88.81 214.797 88.8677 214.451 88.8677C213.932 88.8677 213.471 88.6948 213.183 88.4066C212.895 88.0608 212.722 87.6573 212.722 87.0233C212.722 86.0435 213.01 85.1214 213.587 84.3721C214.163 83.6228 214.912 83.2194 215.892 83.2194C216.757 83.2194 217.391 83.3923 217.794 83.6805ZM216.699 84.2568C216.584 84.0839 216.295 84.0263 215.777 84.0263C215.258 84.0263 214.739 84.3145 214.336 84.8908C213.932 85.4672 213.702 86.1588 213.702 87.0233C213.702 87.7726 214.048 88.1184 214.682 88.1184C215.027 88.1184 215.316 87.9455 215.604 87.5997C215.892 87.2539 216.123 86.7928 216.238 86.2741L216.699 84.2568Z" fill="#CBCFCE"></path>
      <path d="M224.364 84.3145C224.134 84.1416 223.903 84.0839 223.673 84.0839C223.327 84.0839 222.981 84.2568 222.693 84.545C222.405 84.8908 222.174 85.2366 222.116 85.6977L221.54 88.81H220.56L221.54 83.3347H222.52L222.347 84.1992C222.808 83.5652 223.384 83.2194 224.076 83.2194C224.191 83.2194 224.364 83.2194 224.652 83.277L224.364 84.3145Z" fill="#CBCFCE"></path>
      <path d="M228.226 86.2165C228.168 86.3894 228.168 86.5623 228.168 86.6775C228.168 87.1386 228.284 87.4844 228.572 87.715C228.802 87.9455 229.148 88.0608 229.609 88.0608C230.013 88.0608 230.416 87.8879 230.82 87.5997L230.704 88.5795C230.186 88.7524 229.667 88.8677 229.263 88.8677C227.88 88.8677 227.131 88.0608 227.131 86.5046C227.131 85.5825 227.419 84.7756 227.995 84.1416C228.572 83.5076 229.321 83.1618 230.243 83.1618C230.762 83.1618 231.223 83.277 231.569 83.5076C231.915 83.7381 232.03 84.0839 232.03 84.4874C232.03 85.0637 231.799 85.5825 231.281 85.8706C230.762 86.2164 230.186 86.3894 229.436 86.3894C228.975 86.5046 228.514 86.3894 228.226 86.2165ZM228.399 85.5248C228.629 85.6401 228.975 85.6977 229.321 85.6977C229.84 85.6977 230.301 85.6401 230.647 85.4672C230.992 85.2943 231.165 85.0637 231.165 84.7179C231.165 84.3145 230.877 84.0839 230.301 84.0839C229.321 84.0263 228.745 84.545 228.399 85.5248Z" fill="#CBCFCE"></path>
    </g>
  </symbol>
  <symbol fill="none" xmlns="http://www.w3.org/2000/svg" viewBox="0 0 306 100" id="prom">
    <g opacity="0.8">
      <path fill-rule="evenodd" clip-rule="evenodd" d="M132.671 56.3402C134.092 54.9197 134.774 53.2152 134.774 51.2256C134.774 49.2369 134.092 47.5323 132.671 46.1687C131.251 44.7482 129.546 44.0664 127.5 44.0664C125.399 44.0664 123.637 44.7482 122.161 46.1687C120.74 47.5323 120 49.2369 120 51.2256C120 53.2152 120.74 54.9197 122.161 56.3402C123.637 57.7048 125.399 58.3857 127.5 58.3857C129.546 58.3857 131.251 57.7048 132.671 56.3402ZM112.045 76.5111V36.908H120.511V40.6581C121.363 38.1571 124.716 36.3966 129.035 36.3966C133.069 36.3966 136.478 37.8171 139.149 40.714C141.876 43.555 143.24 47.0778 143.24 51.2256C143.24 55.3752 141.876 58.8971 139.149 61.7949C136.478 64.6359 133.069 66.0563 129.035 66.0563C124.716 66.0563 121.363 64.2958 120.511 61.7949V76.5111H112.045Z" fill="black"></path>
      <path fill-rule="evenodd" clip-rule="evenodd" d="M147.61 65.5465V36.9077H156.076V40.83C157.383 37.9305 160.451 36.2827 164.372 36.2827C164.94 36.2827 165.679 36.3404 166.588 36.4541V44.4088C165.735 44.2383 164.77 44.1247 163.747 44.1247C158.917 44.1247 156.076 46.852 156.076 51.568V65.5465H147.61Z" fill="black"></path>
      <path fill-rule="evenodd" clip-rule="evenodd" d="M178.807 56.5676C180.227 57.9881 181.99 58.7268 184.091 58.7268C186.193 58.7268 187.955 57.9881 189.375 56.5676C190.796 55.0912 191.536 53.3289 191.536 51.2266C191.536 49.1234 190.796 47.3629 189.375 45.9424C187.955 44.4642 186.193 43.7273 184.091 43.7273C181.99 43.7273 180.227 44.4642 178.807 45.9424C177.386 47.3629 176.648 49.1234 176.648 51.2266C176.648 53.3289 177.386 55.1471 178.807 56.5676ZM195.342 40.4868C198.467 43.3846 200.001 46.9651 200.001 51.2266C200.001 55.4881 198.467 59.0677 195.342 62.0223C192.216 64.921 188.466 66.3974 184.091 66.3974C179.66 66.3974 175.91 64.921 172.783 62.0223C169.717 59.0677 168.181 55.4881 168.181 51.2266C168.181 46.9651 169.717 43.3846 172.783 40.4868C175.91 37.5331 179.66 36.0549 184.091 36.0549C188.466 36.0549 192.216 37.5331 195.342 40.4868Z" fill="black"></path>
      <path fill-rule="evenodd" clip-rule="evenodd" d="M204.434 65.5465V36.9077H212.901V40.4882C213.98 37.989 216.877 36.2827 220.344 36.2827C224.208 36.2827 226.821 37.8168 228.128 40.83C229.719 37.8168 232.9 36.2827 237.674 36.2827C244.209 36.2827 247.846 40.7155 247.846 48.1588V65.5465H239.38V49.1816C239.38 45.8293 237.846 43.7837 235.118 43.7837C232.334 43.7837 230.344 46.1142 230.344 49.4657V65.5465H221.878V49.1816C221.878 45.8293 220.344 43.7837 217.617 43.7837C214.889 43.7837 212.901 46.1142 212.901 49.4657V65.5465H204.434Z" fill="black"></path>
      <path fill-rule="evenodd" clip-rule="evenodd" d="M58 65.959H99.959V24H58V65.959ZM67.6156 56.3434H90.3434V33.6156H67.6156V56.3434Z" fill="url(#paint0_linear_473_248)"></path>
    </g>
    <defs>
      <linearGradient id="paint0_linear_473_248" x1="58" y1="24" x2="99.959" y2="65.959" gradientUnits="userSpaceOnUse">
        <stop stop-color="#4854A2"></stop>
        <stop offset="1" stop-color="#772088"></stop>
      </linearGradient>
    </defs>
  </symbol>
  <symbol fill="none" xmlns="http://www.w3.org/2000/svg" viewBox="0 0 306 100" id="magento">
    <g opacity="0.8">
      <path d="M63.2483 17.2649L35.001 33.5699V66.1372L43.0645 70.7989L43.0076 38.2244L63.1914 26.5739L83.3751 38.2244V70.7846L91.4387 66.1372V33.5414L63.2483 17.2649Z" fill="#F26322"></path>
      <path d="M67.2481 70.7917L63.2199 73.1332L59.1703 70.8131V38.2244L51.1139 42.8789L51.1281 75.4534L63.2127 82.4351L75.3116 75.4534V42.8789L67.2481 38.2244V70.7917Z" fill="#F26322"></path>
      <path d="M109.907 33.7693L120.996 61.7817H121.088L131.906 33.7693H136.126V65.8669H133.208V37.8971H133.116C132.964 38.4048 132.8 38.9125 132.625 39.4202C132.473 39.8377 132.3 40.3003 132.105 40.808C131.913 41.3204 131.735 41.7972 131.593 42.2456L122.298 65.8669H119.651L110.263 42.2527C110.083 41.8352 109.903 41.3797 109.722 40.8863C109.542 40.3928 109.376 39.9207 109.224 39.47C109.044 38.9291 108.864 38.4048 108.683 37.8971H108.591V65.8669H105.822V33.7693H109.907Z" fill="#4D4D4D"></path>
      <path d="M144.61 66.0021C143.738 65.7615 142.923 65.3503 142.211 64.7922C141.533 64.2489 140.988 63.5575 140.617 62.771C140.228 61.9644 140.034 61.0226 140.034 59.9456C140.034 58.5696 140.287 57.4475 140.795 56.5792C141.296 55.7213 142.006 55.0039 142.859 54.494C143.727 53.972 144.738 53.5759 145.891 53.3054C147.111 53.0254 148.347 52.8163 149.592 52.6791C150.73 52.5605 151.696 52.4324 152.488 52.2948C153.281 52.1572 153.924 51.984 154.417 51.7753C154.91 51.5665 155.269 51.2889 155.492 50.9426C155.715 50.5962 155.826 50.1241 155.826 49.5263V49.0779C155.826 47.4932 155.347 46.3189 154.389 45.555C153.43 44.7911 152.054 44.4092 150.261 44.4092C146.128 44.4092 143.957 46.1315 143.749 49.5761H141.009C141.16 47.3319 141.991 45.536 143.5 44.1886C145.008 42.8411 147.26 42.1673 150.254 42.1673C152.797 42.1673 154.801 42.7296 156.267 43.8541C157.734 44.9785 158.467 46.8124 158.467 49.3555V61.9668C158.467 62.6548 158.595 63.1553 158.851 63.4685C159.107 63.7816 159.489 63.9548 159.997 63.988C160.154 63.9876 160.311 63.9733 160.466 63.9453C160.63 63.9168 160.815 63.867 161.029 63.8101H161.164V65.8313C160.917 65.9336 160.662 66.0168 160.402 66.0804C160.033 66.163 159.656 66.2012 159.278 66.1943C158.263 66.1943 157.454 65.931 156.851 65.4043C156.248 64.8776 155.919 64.0473 155.862 62.9134V62.4223H155.741C155.377 62.9135 154.979 63.3796 154.552 63.8172C154.051 64.3245 153.483 64.7625 152.866 65.1196C152.146 65.5323 151.376 65.8482 150.574 66.0591C149.706 66.301 148.719 66.4197 147.613 66.4149C146.596 66.4228 145.582 66.2862 144.603 66.0092L144.61 66.0021ZM151.449 63.561C152.422 63.1577 153.238 62.6405 153.898 62.0095C154.517 61.427 155.011 60.7248 155.352 59.9456C155.692 59.1663 155.87 58.3262 155.876 57.476V53.2983C155.126 53.7158 154.22 54.0385 153.157 54.2662C152.095 54.494 150.994 54.6814 149.855 54.8285C148.868 54.9803 147.955 55.1369 147.115 55.2982C146.275 55.4595 145.549 55.7205 144.937 56.081C144.332 56.4322 143.829 56.9351 143.478 57.54C143.118 58.1521 142.937 58.9539 142.937 59.9456C142.937 60.7522 143.08 61.4259 143.364 61.9668C143.631 62.484 144.016 62.9304 144.489 63.2692C144.981 63.6106 145.538 63.8479 146.126 63.9667C146.776 64.1028 147.44 64.1696 148.104 64.1659C149.362 64.1659 150.477 63.9643 151.449 63.561Z" fill="#4D4D4D"></path>
      <path d="M165.932 72.2722C164.376 71.1192 163.494 69.6745 163.285 67.9379H165.975C166.217 69.2854 166.943 70.251 168.153 70.8346C169.363 71.4181 170.807 71.7099 172.487 71.7099C174.973 71.7099 176.807 71.1192 177.989 69.9378C179.17 68.7564 179.761 67.1313 179.761 65.0627V61.3832H179.625C178.757 62.6975 177.754 63.6986 176.615 64.3866C175.476 65.0745 174.024 65.4185 172.259 65.4185C170.732 65.4185 169.356 65.1338 168.131 64.5645C166.922 64.0107 165.849 63.1994 164.986 62.1874C164.118 61.1721 163.451 59.9527 162.986 58.5293C162.521 57.1059 162.288 55.5425 162.288 53.8392C162.288 51.9556 162.557 50.2878 163.093 48.836C163.629 47.3841 164.348 46.1647 165.249 45.1778C166.127 44.2064 167.208 43.4409 168.416 42.936C169.631 42.4273 170.935 42.1684 172.252 42.1745C174.046 42.1745 175.526 42.5422 176.693 43.2776C177.86 44.013 178.833 45.007 179.611 46.2596H179.746V42.6584H182.501V64.9702C182.501 67.5418 181.782 69.6223 180.344 71.2118C178.579 73.0669 175.991 73.9945 172.58 73.9945C169.704 73.9945 167.489 73.418 165.932 72.2651V72.2722ZM178.102 60.522C179.331 58.814 179.946 56.5697 179.946 53.7894C179.946 52.4134 179.796 51.1561 179.497 50.0174C179.198 48.8787 178.733 47.8989 178.102 47.0781C177.482 46.262 176.674 45.6077 175.747 45.1707C174.802 44.72 173.702 44.4946 172.444 44.4946C170.138 44.4946 168.35 45.3463 167.078 47.0496C165.807 48.7529 165.171 51.028 165.171 53.8748C165.161 55.1085 165.312 56.3382 165.619 57.5329C165.918 58.6526 166.366 59.6253 166.964 60.4509C167.549 61.2615 168.317 61.9223 169.206 62.3796C170.103 62.8446 171.166 63.077 172.395 63.077C174.966 63.077 176.866 62.223 178.095 60.5149" fill="#4D4D4D"></path>
      <path d="M192.151 65.5324C190.843 64.9481 189.685 64.0745 188.764 62.9774C187.853 61.8861 187.158 60.598 186.678 59.1129C186.199 57.6278 185.96 56.0194 185.96 54.2876C185.96 52.551 186.213 50.9426 186.721 49.4623C187.229 47.9819 187.938 46.6961 188.849 45.6048C189.755 44.5168 190.89 43.642 192.173 43.0427C193.473 42.4307 194.932 42.1246 196.55 42.1246C198.405 42.1246 199.968 42.4757 201.24 43.178C202.484 43.8563 203.547 44.8257 204.336 46.0034C205.128 47.1848 205.69 48.5394 206.022 50.0672C206.353 51.6158 206.518 53.1952 206.513 54.7786H188.828C188.846 56.0181 189.035 57.2491 189.39 58.4368C189.703 59.4976 190.204 60.4933 190.87 61.3761C191.518 62.22 192.357 62.898 193.318 63.3546C194.305 63.8338 195.458 64.0734 196.777 64.0734C198.723 64.0734 200.227 63.6013 201.289 62.6571C202.352 61.713 203.107 60.4485 203.553 58.8638H206.25C205.742 61.1697 204.694 63.0106 203.104 64.3866C201.515 65.7625 199.406 66.4505 196.777 66.4505C195.041 66.4505 193.499 66.1445 192.151 65.5324ZM203.104 49.3697C202.805 48.3686 202.371 47.5003 201.802 46.7649C201.229 46.0273 200.49 45.4349 199.645 45.0355C198.777 44.618 197.745 44.4092 196.55 44.4092C195.354 44.4092 194.312 44.618 193.425 45.0355C192.537 45.4363 191.748 46.0266 191.112 46.7649C190.465 47.5321 189.957 48.4064 189.611 49.3484C189.224 50.3886 188.975 51.4748 188.87 52.5795H203.595C203.575 51.4925 203.41 50.4132 203.104 49.3697Z" fill="#4D4D4D"></path>
      <path d="M212.755 42.6584V46.2027H212.848C213.643 45.0195 214.694 44.0296 215.922 43.3061C217.194 42.5422 218.757 42.1602 220.612 42.1602C222.766 42.1602 224.541 42.7818 225.936 44.0249C227.331 45.268 228.026 47.0567 228.021 49.3911V65.874H225.238V49.6615C225.238 47.8965 224.766 46.6012 223.822 45.7757C222.878 44.9501 221.582 44.5397 219.936 44.5444C218.986 44.5391 218.043 44.708 217.153 45.0426C216.312 45.3542 215.536 45.8174 214.862 46.4091C214.205 46.9886 213.677 47.6988 213.31 48.4943C212.931 49.3249 212.739 50.2288 212.748 51.1419V65.874H209.972V42.6584H212.755Z" fill="#4D4D4D"></path>
      <path d="M235.202 65.084C234.395 64.4388 233.992 63.3688 233.992 61.8743V44.9501H230.491V42.6584H233.992V35.5201H236.775V42.6584H241.088V44.9501H236.775V61.4259C236.775 62.2657 236.962 62.8422 237.337 63.1553C237.712 63.4685 238.272 63.625 239.017 63.625C239.357 63.6232 239.695 63.5851 240.027 63.5112C240.312 63.4544 240.591 63.371 240.86 63.2621H240.995V65.6392C240.17 65.9167 239.304 66.0538 238.433 66.0448C237.086 66.0448 236.009 65.7222 235.202 65.0769" fill="#4D4D4D"></path>
      <path d="M249.322 65.5324C248.018 64.9385 246.861 64.0636 245.934 62.9703C245.004 61.879 244.293 60.5932 243.799 59.1129C243.306 57.6325 243.059 56.0241 243.059 54.2876C243.059 52.551 243.306 50.9426 243.799 49.4622C244.293 47.9819 245.004 46.6937 245.934 45.5977C246.861 44.5048 248.018 43.6299 249.322 43.0356C250.655 42.4235 252.159 42.1175 253.834 42.1175C255.509 42.1175 257.006 42.4235 258.325 43.0356C259.62 43.6342 260.769 44.5086 261.691 45.5977C262.621 46.689 263.324 47.9772 263.798 49.4622C264.273 50.9473 264.512 52.5558 264.517 54.2876C264.517 56.0241 264.277 57.6325 263.798 59.1129C263.319 60.5932 262.617 61.879 261.691 62.9703C260.77 64.0597 259.621 64.9342 258.325 65.5324C257.011 66.1445 255.514 66.4505 253.834 66.4505C252.155 66.4505 250.651 66.1445 249.322 65.5324ZM257.25 63.3546C258.227 62.8557 259.073 62.1341 259.72 61.248C260.38 60.3512 260.873 59.3027 261.2 58.1023C261.859 55.6018 261.859 52.9733 261.2 50.4729C260.873 49.2725 260.38 48.2239 259.72 47.3271C259.074 46.4405 258.228 45.7187 257.25 45.2205C256.264 44.7081 255.127 44.4543 253.841 44.459C252.556 44.4637 251.41 44.7176 250.404 45.2205C249.432 45.7271 248.588 46.4474 247.934 47.3271C247.261 48.2239 246.76 49.2725 246.433 50.4729C245.775 52.9735 245.775 55.6016 246.433 58.1023C246.76 59.2979 247.261 60.3465 247.934 61.248C248.588 62.1271 249.433 62.8472 250.404 63.3546C251.377 63.8623 252.522 64.1161 253.841 64.1161C255.16 64.1161 256.297 63.8623 257.25 63.3546Z" fill="#4D4D4D"></path>
      <path d="M268.075 46.5158C266.353 46.5158 265.157 45.3202 265.157 43.5338C265.157 41.7474 266.382 40.5375 268.075 40.5375C269.769 40.5375 271 41.7474 271 43.5338C271 45.3202 269.776 46.5158 268.075 46.5158ZM268.075 40.8792C266.688 40.8792 265.577 41.8328 265.577 43.5267C265.577 45.2205 266.68 46.16 268.075 46.16C269.47 46.16 270.588 45.2063 270.588 43.5267C270.588 41.8471 269.47 40.8792 268.075 40.8792ZM268.937 45.128L267.947 43.7117H267.627V45.0782H267.058V41.7617H268.061C268.751 41.7617 269.214 42.1104 269.214 42.7296C269.214 43.2064 268.958 43.5124 268.545 43.6406L269.499 44.9928L268.937 45.128ZM268.068 42.2883H267.627V43.2634H268.04C268.41 43.2634 268.645 43.1068 268.645 42.7723C268.645 42.4378 268.438 42.2812 268.068 42.2812" fill="#4D4D4D"></path>
    </g>
  </symbol>
  <symbol fill="none" xmlns="http://www.w3.org/2000/svg" viewBox="0 0 306 100" id="opencart">
    <g opacity="0.8">
      <path d="M62.5 50.938c0 3.38-1.007 6.228-3.03 8.533-2.112 2.416-4.856 3.628-8.215 3.628-3.368 0-6.103-1.212-8.215-3.628-2.024-2.305-3.04-5.153-3.04-8.533 0-3.39 1.016-6.237 3.04-8.534 2.135-2.393 4.88-3.589 8.215-3.589 3.359 0 6.102 1.196 8.214 3.589 2.024 2.297 3.032 5.143 3.032 8.534Zm-6.687 0c0-1.532-.367-2.824-1.103-3.87-.824-1.187-1.976-1.777-3.455-1.777-1.48 0-2.632.59-3.456 1.778-.744 1.045-1.112 2.337-1.112 3.869 0 1.522.368 2.83 1.112 3.907.824 1.188 1.976 1.779 3.456 1.779s2.631-.591 3.455-1.78c.736-1.075 1.103-2.384 1.103-3.906Zm30.868 0c0 3.158-.912 5.917-2.744 8.277C81.977 61.8 79.45 63.1 76.38 63.1c-2.169 0-4.008-.63-5.511-1.873 0 .286.032.98.096 2.09.064 1.115.095 2.024.095 2.742 0 3.965-1.184 5.942-3.55 5.942-.969 0-1.76-.343-2.393-1.021-.623-.685-.936-1.508-.936-2.48V42.715c0-.941.32-1.755.96-2.44.64-.678 1.432-1.02 2.376-1.02 1.423 0 2.463.708 3.12 2.12 1.4-1.706 3.311-2.56 5.735-2.56 3.08 0 5.599 1.276 7.566 3.836 1.824 2.37 2.744 5.129 2.744 8.287Zm-6.687 0c0-1.532-.375-2.824-1.111-3.87-.825-1.187-1.976-1.777-3.456-1.777s-2.632.59-3.456 1.778c-.736 1.045-1.103 2.337-1.103 3.869 0 1.522.367 2.83 1.103 3.907.824 1.188 1.976 1.779 3.456 1.779s2.63-.591 3.456-1.78c.736-1.075 1.11-2.384 1.11-3.906Zm31.019-.717c0 1.115-.264 1.88-.792 2.312-.528.422-1.351.637-2.463.637h-12.07c0 1.277.6 2.257 1.8 2.942.967.536 2.15.807 3.551.807 1.088 0 2.392-.36 3.919-1.068 1.528-.719 2.512-1.07 2.936-1.07.776 0 1.431.28 1.975.853a2.88 2.88 0 0 1 .809 2.043c0 1.825-1.368 3.246-4.105 4.266-2.087.766-4.207 1.156-6.374 1.156-3.487 0-6.303-1.156-8.454-3.46-2.153-2.305-3.232-5.2-3.232-8.701 0-3.335 1.12-6.182 3.36-8.557 2.23-2.378 5.007-3.566 8.318-3.566 3.079 0 5.655 1.125 7.719 3.374 2.063 2.25 3.103 4.928 3.103 8.032Zm-6.686-1.676c-.033-1.021-.505-1.946-1.416-2.784-.913-.837-1.88-1.251-2.904-1.251-1.056 0-2.04.414-2.952 1.25-.911.839-1.368 1.764-1.368 2.785h8.64Zm29.155 10.614c0 .974-.312 1.795-.935 2.48-.633.68-1.425 1.022-2.393 1.022-2.335 0-3.503-1.85-3.503-5.543 0-.71.048-1.826.144-3.365.104-1.532.152-2.656.152-3.366 0-3.916-1.272-5.877-3.807-5.877-2.536 0-3.8 1.96-3.8 5.877 0 .71.04 1.834.112 3.366.08 1.54.12 2.655.12 3.365 0 3.693-1.152 5.543-3.455 5.543-.968 0-1.76-.343-2.384-1.021-.632-.686-.944-1.507-.944-2.481V42.708c0-.967.312-1.787.944-2.45.624-.67 1.424-1.003 2.392-1.003 1.599 0 2.711.708 3.335 2.12 1.08-1.706 2.991-2.56 5.727-2.56 2.536 0 4.552.67 6.031 2.001 1.512 1.43 2.264 3.39 2.264 5.887v12.456Zm20.98-.709c0 1.507-.982 2.703-2.951 3.581a11.915 11.915 0 0 1-4.967 1.068c-3.368 0-6.103-1.212-8.215-3.628-2.024-2.305-3.039-5.153-3.039-8.533 0-3.39 1.032-6.253 3.103-8.598 2.071-2.352 4.783-3.525 8.151-3.525 1.944 0 3.615.287 5.008.854 1.943.766 2.91 1.961 2.91 3.589a3.35 3.35 0 0 1-.768 2.177c-.511.621-1.168.94-1.967.94-.545 0-1.329-.183-2.352-.54-1.024-.369-1.839-.544-2.438-.544-1.593 0-2.833.566-3.721 1.698-.824 1.021-1.24 2.33-1.24 3.949 0 1.522.368 2.815 1.113 3.86.822 1.22 1.984 1.826 3.463 1.826.656 0 1.551-.192 2.695-.583 1.145-.382 1.969-.581 2.48-.581.745 0 1.383.318 1.928.94.536.63.807 1.308.807 2.05Zm24.309.709c0 .974-.312 1.795-.936 2.48-.632.68-1.431 1.022-2.401 1.022-1.455 0-2.494-.71-3.118-2.122-1.4 1.708-3.312 2.56-5.735 2.56-3.103 0-5.647-1.3-7.615-3.883-1.792-2.361-2.694-5.12-2.694-8.278 0-3.158.902-5.918 2.694-8.287 2-2.56 4.535-3.836 7.615-3.836 2.423 0 4.335.854 5.735 2.56.624-1.412 1.663-2.12 3.118-2.12.945 0 1.738.342 2.378 1.02a3.44 3.44 0 0 1 .959 2.433v16.45Zm-6.687-8.221c0-1.532-.367-2.824-1.104-3.87-.856-1.187-2.008-1.777-3.455-1.777-1.48 0-2.631.59-3.456 1.778-.743 1.045-1.11 2.337-1.11 3.869 0 1.522.358 2.83 1.069 3.907.849 1.188 2.017 1.779 3.497 1.779 1.479 0 2.631-.591 3.455-1.78.737-1.075 1.104-2.384 1.104-3.906Zm23.749-8.67c0 1.428-.696 2.408-2.088 2.942-1.288.432-2.569.871-3.848 1.324-1.401.799-2.096 2.282-2.096 4.435v8.19c0 .974-.32 1.795-.943 2.48-.633.68-1.432 1.022-2.4 1.022-.975 0-1.776-.343-2.399-1.021-.633-.686-.944-1.507-.944-2.481V42.708c0-.967.311-1.787.935-2.45.632-.67 1.433-1.003 2.401-1.003 1.599 0 2.71.708 3.335 2.12 1.432-1.706 2.968-2.56 4.623-2.56.943 0 1.752.342 2.423 1.02.664.687 1.001 1.5 1.001 2.433Zm17.445.303c0 1.483-.584 2.417-1.742 2.816-.57.2-1.763.303-3.578.303v13.469c0 .974-.32 1.795-.942 2.48-.634.68-1.433 1.022-2.401 1.022-.943 0-1.744-.343-2.385-1.021-.638-.686-.958-1.507-.958-2.481v-13.47c-1.376 0-2.376-.175-3.007-.517-.863-.479-1.29-1.348-1.29-2.6s.44-2.106 1.328-2.561c.6-.335 1.593-.51 2.969-.51v-2.855c0-3.357 1.11-5.032 3.343-5.032 2.223 0 3.343 1.675 3.343 5.032v2.855c1.815 0 3.008.104 3.578.303 1.158.398 1.742 1.325 1.742 2.767ZM267 38.521c-.018-2.046-3.812-2.976-13.633-2.976-23.044 0-28.89-.981-35.147-7.545 2.632 3.941 4.072 11.334 28.429 10.966 25.412-.39 9.909 6.533 5.399 14.355 8.134-7.239 14.927-12.01 14.952-14.77v-.03Zm-32.382 21.022c-.001 1.902-1.57 3.468-3.479 3.468a3.477 3.477 0 0 1-3.487-3.468v-.003c0-1.906 1.573-3.475 3.485-3.475h.002a3.477 3.477 0 0 1 3.479 3.478Zm15.87 0c-.001 1.902-1.571 3.468-3.48 3.468a3.478 3.478 0 0 1-3.486-3.468v-.003c0-1.906 1.573-3.475 3.484-3.475h.002a3.478 3.478 0 0 1 3.48 3.478Z" opacity=".8"/>
s
    </g>
  </symbol>
  <symbol fill="none" xmlns="http://www.w3.org/2000/svg" viewBox="0 0 306 100" id="woo">
    <g opacity="0.8">
      <path fill-rule="evenodd" clip-rule="evenodd" d="M43.5937 33.088C44.619 30.7071 47.1822 29.0014 49.8552 29.0014C70.0314 29.0014 90.2075 29.0014 110.42 29.0014C112.178 28.9659 113.936 29.6055 115.217 30.7427C116.682 32.022 117.524 33.9409 117.487 35.8599C117.487 43.358 117.487 50.8561 117.487 58.3897C117.451 61.7656 114.412 64.8217 110.933 64.8928C103.573 64.9283 96.2127 64.8928 88.8527 64.8928C89.8413 67.2737 90.83 69.6191 91.8187 72C87.4246 69.6546 83.1037 67.2382 78.6731 64.9283C69.0061 64.8573 59.3025 64.9283 49.5989 64.8928C46.1203 64.7862 43.081 61.7656 43.0444 58.3897C43.0078 51.0337 43.0444 43.6778 43.0078 36.3574C43.0078 35.2558 43.1177 34.1186 43.5937 33.088Z" fill="#945C87"></path>
      <path fill-rule="evenodd" clip-rule="evenodd" d="M73.1811 33.623C74.2796 32.4858 76.4034 32.8412 77.2456 34.156C77.685 34.8312 77.7216 35.7551 77.3555 36.4658C75.8175 39.4509 75.1584 42.7557 74.5726 45.9895C73.8768 50.2183 73.291 54.5181 73.5107 58.818C73.5839 59.9196 73.0346 61.2344 71.8263 61.5187C70.6911 61.7675 69.6292 61.0212 68.8969 60.2394C65.6013 56.7924 63.7338 52.3504 62.379 47.9084C61.0242 50.5026 59.6693 53.1322 58.3511 55.7264C57.4357 57.5032 56.447 59.3155 54.9823 60.7369C54.3598 61.3411 53.2979 61.8741 52.4923 61.27C51.284 60.2394 50.991 58.6048 50.4784 57.2189C48.5377 50.7158 47.4391 43.9995 46.304 37.3187C46.0477 36.2171 46.5237 34.8667 47.6588 34.4403C48.5743 34.1205 49.7827 34.0494 50.5516 34.7246C51.1009 35.1865 51.2473 35.9328 51.3572 36.608C52.1628 41.7962 53.0782 46.949 54.3964 52.0306C56.5935 47.9795 58.7905 43.9284 60.9875 39.8418C61.3171 39.2376 61.7199 38.6335 62.3058 38.2782C63.1113 37.7807 64.2831 37.8162 64.9788 38.5269C65.5281 39.0955 65.7478 39.9128 65.8943 40.6591C66.5534 43.9995 67.4322 47.3399 68.7138 50.5026C69.2631 45.7052 69.9588 40.8368 71.753 36.3237C72.1558 35.3642 72.522 34.4047 73.1811 33.623ZM85.5944 36.2171C87.9745 35.9328 90.5377 36.7146 92.1489 38.4559C93.4671 39.9128 94.1994 41.7962 94.4558 43.6797C94.8585 46.9134 94.236 50.3249 92.6249 53.2033C91.7095 54.838 90.5377 56.4371 88.8533 57.3966C86.3999 58.8535 83.1044 58.6759 80.7243 57.1478C78.8202 55.8685 77.7583 53.7363 77.3189 51.6042C76.44 46.7357 77.9414 41.3343 81.7129 37.9584C82.8115 36.9989 84.1663 36.3948 85.5944 36.2171ZM86.0704 41.1921C84.9353 41.5475 84.2029 42.578 83.5804 43.502C82.0425 45.9184 81.6031 49.0811 82.8481 51.6753C83.1776 52.3504 83.6903 53.0967 84.5325 53.2388C85.4113 53.381 86.2169 52.8835 86.8394 52.3504C88.2308 51.1778 88.9265 49.4365 89.2927 47.6952C89.6589 45.7407 89.4758 43.573 88.304 41.8673C87.828 41.2277 86.876 40.9434 86.0704 41.1921ZM104.599 36.2171C106.906 35.9328 109.432 36.6435 111.043 38.3137C112.508 39.8418 113.277 41.8673 113.497 43.9284C113.826 47.0556 113.24 50.3249 111.702 53.0967C110.787 54.7669 109.579 56.4016 107.821 57.3966C105.478 58.7825 102.328 58.6403 99.985 57.2899C98.4104 56.366 97.3485 54.8024 96.726 53.1322C95.0782 48.0506 96.4697 42.0805 100.278 38.2426C101.523 37.1766 103.024 36.3948 104.599 36.2171ZM105.111 41.1921C103.866 41.6186 103.134 42.7913 102.475 43.8218C101.083 46.2027 100.717 49.2943 101.999 51.8174C102.328 52.5281 102.951 53.2033 103.793 53.2388C104.709 53.2744 105.514 52.7058 106.173 52.1017C107.601 50.7513 108.224 48.8324 108.444 46.949C108.663 45.2077 108.37 43.3243 107.308 41.8318C106.869 41.2277 105.917 40.9434 105.111 41.1921Z" fill="white"></path>
      <path fill-rule="evenodd" clip-rule="evenodd" d="M130.01 36.8905C132.024 36.4641 134.148 36.4996 136.162 36.9616C136.162 38.5607 136.162 40.1599 136.162 41.759C134.514 41.3681 132.647 41.0127 131.072 41.759C129.168 42.6829 128.106 44.7795 128.106 46.7695C127.996 48.7596 128.692 50.9983 130.523 52.1355C132.207 53.2016 134.368 52.9884 136.199 52.4909C136.199 54.09 136.199 55.6891 136.199 57.2882C133.745 57.9634 131.072 57.8923 128.692 57.0395C125.836 56.0089 123.566 53.5925 122.687 50.7496C122.028 48.5819 121.955 46.2721 122.467 44.0688C123.309 40.5508 126.385 37.6723 130.01 36.8905ZM144.877 36.6418C147.367 36.3575 150.077 36.7484 152.091 38.2764C154.031 39.7334 154.983 42.1143 155.35 44.3886C155.679 46.9117 155.606 49.5414 154.8 51.9578C154.105 54.0189 152.677 55.9378 150.626 56.8973C148.539 57.8568 146.085 57.9279 143.852 57.4304C141.801 56.9684 139.97 55.6536 138.945 53.8412C137.517 51.4248 137.261 48.5464 137.371 45.8101C137.48 43.4647 138.103 41.0127 139.714 39.2004C141.032 37.7434 142.936 36.855 144.877 36.6418ZM145.646 41.2259C144.584 41.4747 143.962 42.5052 143.705 43.4647C143.193 45.3836 143.266 47.3737 143.412 49.3281C143.559 50.3942 143.669 51.5314 144.438 52.3842C145.463 53.5214 147.55 53.3793 148.466 52.2066C149.088 51.4603 149.271 50.5008 149.381 49.5769C149.601 47.9422 149.637 46.272 149.381 44.6374C149.198 43.6424 148.905 42.6118 148.173 41.8656C147.514 41.2259 146.525 41.0127 145.646 41.2259ZM243.304 36.9616C245.428 36.4286 247.662 36.4996 249.786 36.9261C249.822 38.5252 249.786 40.1243 249.822 41.759C248.211 41.3681 246.417 41.0127 244.842 41.6879C243.011 42.5052 241.913 44.3886 241.766 46.272C241.547 48.4042 242.133 50.8207 244.073 52.0644C245.758 53.2016 247.955 52.9884 249.822 52.4553C249.786 54.0544 249.859 55.6891 249.786 57.2882C247.186 57.9279 244.33 57.8568 241.876 56.8263C239.167 55.6891 237.043 53.2726 236.274 50.5008C235.688 48.3687 235.615 46.0944 236.164 43.9267C236.97 40.5863 239.862 37.85 243.304 36.9616ZM158.609 37.1038C160.952 37.1038 163.332 37.1038 165.676 37.1038C166.518 40.7995 167.323 44.5308 168.056 48.2621C168.715 44.4952 169.63 40.7995 170.546 37.1038C172.963 37.1038 175.379 37.1038 177.796 37.1038C178.748 43.8201 179.663 50.5364 180.579 57.2171C178.748 57.2171 176.881 57.2171 175.05 57.2171C174.537 52.633 174.098 48.0133 173.548 43.4292C172.413 48.0133 171.242 52.633 170.106 57.2171C168.861 57.2171 167.58 57.2171 166.335 57.2171C165.126 52.633 163.955 48.0133 162.71 43.3936C162.234 47.9778 161.758 52.5975 161.282 57.2171C159.524 57.2171 157.766 57.2171 155.972 57.2171C156.851 50.5364 157.73 43.8201 158.609 37.1038ZM183.948 37.1038C186.291 37.1038 188.671 37.1038 191.015 37.1038C191.857 40.7995 192.663 44.5308 193.395 48.2621C194.091 44.5308 194.97 40.7995 195.885 37.1038H203.099C204.051 43.8201 204.966 50.5364 205.881 57.2171C204.051 57.2171 202.183 57.2171 200.352 57.2171C199.84 52.633 199.364 48.0133 198.851 43.4292C197.716 48.0133 196.581 52.633 195.409 57.2171C194.164 57.2171 192.882 57.2171 191.637 57.2171C190.429 52.5975 189.221 48.0133 188.012 43.3936C187.536 48.0133 187.06 52.5975 186.584 57.2171C184.827 57.2171 183.069 57.2171 181.275 57.2171C182.19 50.5364 183.069 43.8201 183.948 37.1038ZM207.493 37.1748C211.264 37.1037 215.072 37.1748 218.844 37.1393C218.844 38.5607 218.844 39.9822 218.844 41.4391C216.94 41.4747 215.036 41.4391 213.132 41.4391C213.132 42.6829 213.132 43.8911 213.132 45.1349C214.779 45.1349 216.427 45.1349 218.075 45.1349C218.075 46.5208 218.075 47.9067 218.075 49.2926C216.427 49.2926 214.779 49.2926 213.132 49.2926C213.132 50.5008 213.132 51.7446 213.132 52.9884C215.036 52.9884 216.977 52.9884 218.881 52.9884C218.881 54.4098 218.881 55.8312 218.881 57.2882C215.109 57.2882 211.301 57.2882 207.529 57.2882C207.493 50.5719 207.566 43.8911 207.493 37.1748ZM220.455 37.1038C222.835 37.1038 225.179 37.0682 227.559 37.1038C229.793 37.1748 232.173 37.7079 233.82 39.2359C235.322 40.5863 235.834 42.8251 235.249 44.7085C234.773 46.2365 233.601 47.4803 232.136 48.1555C233.601 51.176 235.102 54.1966 236.603 57.2171C234.626 57.2171 232.649 57.2171 230.708 57.2171C229.17 54.1255 227.669 51.0339 226.094 47.9778C226.058 51.0694 226.094 54.1611 226.094 57.2171C224.227 57.2171 222.359 57.2171 220.492 57.2171C220.455 50.5364 220.455 43.8201 220.455 37.1038ZM226.058 40.9772C226.058 42.5763 226.058 44.1754 226.058 45.7745C227.083 45.7035 228.181 45.6679 229.024 45.0638C230.012 44.3531 229.902 42.8961 229.28 41.9722C228.511 41.0838 227.156 41.0838 226.058 40.9772ZM251.397 37.1393C255.168 37.1393 258.94 37.1393 262.712 37.1393C262.712 38.5607 262.712 40.0177 262.712 41.4391C260.807 41.4391 258.867 41.4391 256.963 41.4391C256.963 42.6829 256.963 43.8911 256.963 45.1349C258.61 45.1349 260.258 45.1349 261.906 45.1349C261.906 46.5208 261.906 47.9067 261.906 49.2926H256.963C256.963 50.5364 256.963 51.7446 256.963 52.9884C258.903 52.9884 260.807 52.9884 262.748 52.9884C262.748 54.4098 262.748 55.8312 262.748 57.2882C258.977 57.2882 255.168 57.2882 251.397 57.2882C251.36 50.5364 251.397 43.8201 251.397 37.1393Z" fill="black"></path>
    </g>
  </symbol>
</svg>

