<svg width="306" height="100" viewBox="0 0 306 100" fill="none" xmlns="http://www.w3.org/2000/svg">
<g opacity="0.8">
<path d="M62.9848 84.2567H58.8351L43.043 41.3183H51.2848L61.0829 69.9055C76.1833 30.8287 110.361 14.2873 141.657 9.1001L142.579 10.541C122.004 15.3824 103.041 23.2208 87.9986 38.6671L87.5952 38.5518L87.0188 38.4942H85.8661L85.2898 38.5518L84.7134 38.6671L84.1947 38.84L83.676 39.0705L83.2149 39.3587L82.7538 39.7045L81.9469 40.5114L81.6011 40.9725L81.3129 41.4336L81.0824 41.9523L80.9095 42.471L80.7942 43.0474L80.7365 43.6237V44.7764L80.7942 45.3528L80.9095 45.9291L81.0824 46.4479L81.14 46.5631C80.7365 47.0819 80.3331 47.6006 79.9297 48.1769H77.7971V51.174C71.9183 60.1651 66.8464 71.0582 62.9848 84.2567Z" fill="#1E6EAA"/>
<path fill-rule="evenodd" clip-rule="evenodd" d="M171.455 64.8336H153.588C153.703 66.8508 154.394 68.407 155.662 69.502C156.93 70.5971 158.602 71.1735 160.734 71.1735C163.386 71.1735 165.403 70.4818 166.786 69.0986L169.034 73.5365C166.959 75.2079 163.904 76.0148 159.812 76.0148C156.008 76.0148 152.954 74.8621 150.763 72.672C148.573 70.4242 147.421 67.3119 147.421 63.335C147.421 59.4158 148.631 56.1882 151.109 53.7675C153.53 51.3469 156.469 50.0789 159.87 50.0789C163.501 50.0789 166.44 51.174 168.63 53.3065C170.821 55.4966 171.916 58.2055 171.916 61.606C171.973 62.3552 171.8 63.3927 171.455 64.8336ZM86.5575 40.8572C87.4797 40.8572 88.2866 41.203 88.9782 41.837C89.6122 42.471 89.958 43.2779 89.958 44.2577C89.958 45.2375 89.6122 45.9868 88.9782 46.6784C88.3442 47.3124 87.5373 47.6582 86.5575 47.6582C85.6353 47.6582 84.8284 47.3124 84.1368 46.6784C83.5028 46.0444 83.157 45.2375 83.157 44.2577C83.157 43.2779 83.5028 42.5286 84.1368 41.837C84.8284 41.203 85.5777 40.8572 86.5575 40.8572ZM83.5028 55.3237H80.2752V50.54H89.3816V75.5537H83.5028V55.3237ZM103.445 55.3813C102.061 55.3813 100.909 55.5542 99.8137 56.8222C98.7762 58.0326 98.2575 59.5311 98.2575 61.3178V75.5537H92.4363V50.54H98.2575V52.8454C99.8713 51.001 102.061 50.54 104.77 50.54C106.211 50.54 107.364 50.2518 108.344 50.5976H108.978V45.5257L114.799 43.3932V50.6552H121.657V55.3813H114.799V66.3321C114.799 68.1188 115.087 69.3868 115.663 70.136C116.24 70.8853 117.22 71.2311 118.603 71.2311C119.986 71.2311 121.312 70.8276 122.522 70.0784V75.4385C121.139 75.8996 119.237 76.1301 116.701 76.1301C114.223 76.1301 112.263 75.4385 110.937 73.9976C109.612 72.6143 108.92 70.5971 108.92 68.0035V55.3237C106.73 55.2661 105.923 55.3813 103.445 55.3813ZM140.331 75.6114V73.4789C139.524 74.1705 138.372 74.8045 136.931 75.2656C135.49 75.7843 134.164 76.0148 132.954 76.0148C127.133 76.0148 124.251 72.9025 124.251 66.7355V50.54H130.072V66.3321C130.072 69.5597 131.513 71.1158 134.395 71.1158C135.721 71.1158 136.931 70.77 138.084 70.0784C139.236 69.3868 139.986 68.5799 140.331 67.7153V50.54H146.153V75.6114H140.331ZM153.76 60.4533H166.037C165.633 56.8222 163.616 54.9779 159.985 54.9779C156.7 54.9779 154.625 56.8222 153.76 60.4533Z" fill="#1E6EAA"/>
<path d="M207.015 75.6115H201.079L197.563 57.1681L190.647 76.0725H188.456L181.598 57.1681L177.909 75.6115H172.03L178.947 41.3184H182.116L189.551 64.4302L196.814 41.3184H199.983L207.015 75.6115Z" fill="#00AEEF"/>
<path d="M224.306 73.0755C223.787 73.94 222.865 74.6316 221.539 75.208C220.214 75.7843 218.83 76.0149 217.389 76.0149C214.681 76.0149 212.606 75.3233 211.05 73.9976C209.493 72.672 208.744 70.7124 208.744 68.2341C208.744 65.3523 209.839 63.0469 212.029 61.4331C214.22 59.8193 217.274 59.0124 221.309 59.0124C222 59.0124 222.807 59.1277 223.729 59.3582C223.729 56.4188 221.885 54.9203 218.139 54.9203C215.949 54.9203 214.104 55.2661 212.606 56.0154L211.338 51.4622C213.355 50.4824 215.718 50.0213 218.485 50.0213C222.288 50.0213 225.113 50.8858 226.899 52.6149C228.686 54.344 229.551 57.6292 229.551 62.4706V67.8307C229.551 71.1735 230.242 73.2484 231.568 74.1129C231.107 74.9774 230.53 75.4962 229.954 75.6691C229.378 75.842 228.686 75.9572 227.937 75.9572C227.072 75.9572 226.323 75.6691 225.689 75.0351C224.997 74.5164 224.536 73.8247 224.306 73.0755ZM223.729 63.7962C222.75 63.6233 222 63.508 221.482 63.508C216.871 63.508 214.565 65.0065 214.565 68.0612C214.565 70.309 215.891 71.404 218.485 71.404C222 71.404 223.729 69.675 223.729 66.1592V63.7962Z" fill="#00AEEF"/>
<path fill-rule="evenodd" clip-rule="evenodd" d="M244.017 55.2661C242.634 55.2661 241.481 55.6119 240.386 56.8223C239.348 58.0326 238.83 59.5312 238.83 61.3179V75.5538H233.008V50.54H238.83V52.8454C240.443 51.0011 242.634 50.3671 245.342 50.3671C246.783 50.3671 247.936 50.2519 248.916 50.54H250.011V45.4681L255.832 43.3356V50.5977H262.691V55.3238H255.832V66.2745C255.832 68.0612 256.12 69.3292 256.697 70.0784C257.273 70.8277 258.253 71.1735 259.636 71.1735C261.019 71.1735 262.345 70.7701 263.555 70.0208V75.3809C262.172 75.842 260.27 76.0725 257.734 76.0725C255.256 76.0725 253.296 75.3809 251.971 73.94C250.645 72.5568 249.953 70.5395 249.953 67.9459V55.2661C247.533 55.2661 246.668 55.2661 244.017 55.2661Z" fill="#00AEEF"/>
<path d="M82.3506 88.4642L82.8693 87.5421C82.9846 87.6573 83.2151 87.7726 83.4457 87.8879C83.6762 88.0031 83.9067 88.0608 84.0796 88.0608C84.3678 88.0608 84.656 88.0032 84.8289 87.8302C85.0018 87.6573 85.1171 87.4268 85.1171 87.1386C85.1171 87.0233 85.0595 86.8504 84.9442 86.7352C84.8289 86.6199 84.656 86.5046 84.4255 86.3317L83.6762 85.9283C83.4457 85.813 83.2728 85.6401 83.1575 85.4672C83.0422 85.2943 82.9846 85.0637 82.9846 84.8332C82.9846 84.3145 83.1575 83.911 83.5609 83.6229C83.9644 83.3347 84.4255 83.1618 85.0018 83.1618C85.4053 83.1618 85.8664 83.277 86.4427 83.5652L85.9816 84.4874C85.6358 84.1992 85.29 84.0263 84.8865 84.0263C84.656 84.0263 84.4255 84.0839 84.1949 84.1992C84.022 84.3145 83.9067 84.4874 83.9067 84.7179C83.9067 84.8908 83.9644 85.0061 84.0796 85.1214C84.1949 85.2366 84.3678 85.3519 84.656 85.5248L85.3476 85.9283C85.5782 86.0435 85.7511 86.2165 85.8664 86.3894C85.9816 86.5623 86.0393 86.7928 86.0393 87.0233C86.0393 87.5997 85.8087 88.0608 85.4053 88.4066C85.0018 88.7524 84.4255 88.9253 83.7915 88.9253C83.3304 88.9253 82.8117 88.7524 82.3506 88.4642Z" fill="#CBCFCE"/>
<path d="M92.4943 88.81L93.1283 85.3519C93.1283 85.2366 93.1859 85.0637 93.1859 85.0061C93.1859 84.3721 92.8978 84.0839 92.2638 84.0839C92.0332 84.0839 91.8027 84.1416 91.5145 84.3145C91.2263 84.4298 91.0534 84.6027 90.8805 84.7756L90.1313 88.8677H89.1515L90.4771 81.1445H91.4569L90.9958 83.9687C91.1687 83.7958 91.3992 83.6229 91.6874 83.4499C91.9756 83.3347 92.3214 83.277 92.6096 83.277C93.0707 83.277 93.4741 83.3923 93.7623 83.6805C94.0505 83.9687 94.1657 84.3721 94.1657 84.8332C94.1657 85.0061 94.1657 85.179 94.1081 85.4096L93.4741 88.8677H92.4943V88.81Z" fill="#CBCFCE"/>
<path d="M97.105 86.7928C97.105 85.813 97.3932 84.9484 97.9696 84.2568C98.5459 83.5652 99.2952 83.2194 100.16 83.2194C100.851 83.2194 101.312 83.3923 101.658 83.7381C102.004 84.0839 102.177 84.6026 102.177 85.2943C102.177 85.813 102.062 86.3893 101.889 86.9081C101.658 87.4844 101.312 87.9455 100.851 88.2913C100.39 88.6948 99.8139 88.8677 99.1223 88.8677C98.4883 88.8677 97.9696 88.6948 97.6237 88.2913C97.2779 88.0031 97.105 87.4844 97.105 86.7928ZM98.1425 86.7351C98.1425 87.6573 98.5459 88.1184 99.2952 88.1184C99.8715 88.1184 100.333 87.8302 100.678 87.2539C101.024 86.6775 101.197 86.0435 101.197 85.2943C101.197 84.4297 100.794 83.9686 100.044 83.9686C99.641 83.9686 99.2952 84.0839 99.007 84.3721C98.7188 84.6603 98.4883 85.0061 98.373 85.4672C98.2001 85.9283 98.1425 86.3317 98.1425 86.7351Z" fill="#CBCFCE"/>
<path d="M105.866 88.5219L105.462 90.9425H104.482L105.577 84.9485C105.635 84.6603 105.635 84.4297 105.635 84.1992C105.635 83.9687 105.635 83.6805 105.577 83.4499L106.557 83.277C106.557 83.3347 106.615 83.5652 106.672 83.9686C106.845 83.7957 107.076 83.6228 107.364 83.4499C107.652 83.3347 107.94 83.2194 108.229 83.2194C108.92 83.2194 109.439 83.3923 109.785 83.7381C110.131 84.0839 110.303 84.6026 110.303 85.2366C110.303 86.2741 110.015 87.1386 109.439 87.8302C108.863 88.5219 108.113 88.8677 107.191 88.8677C106.961 88.8677 106.73 88.81 106.499 88.7524C106.038 88.7524 105.923 88.6371 105.866 88.5219ZM105.981 87.715C106.038 87.8302 106.154 87.8879 106.327 88.0031C106.5 88.0608 106.672 88.1184 106.845 88.1184C107.537 88.1184 108.113 87.8879 108.517 87.3691C108.92 86.9081 109.093 86.2164 109.093 85.4095C109.093 84.9484 108.978 84.6026 108.747 84.3721C108.517 84.1416 108.171 84.0263 107.71 84.0263C107.537 84.0263 107.306 84.0839 107.018 84.2568C106.73 84.3721 106.557 84.545 106.442 84.6603L105.981 87.715Z" fill="#CBCFCE"/>
<path d="M113.82 88.5219L113.416 90.9425H112.436L113.531 84.9485C113.589 84.6603 113.589 84.4297 113.589 84.1992C113.589 83.9687 113.589 83.6805 113.531 83.4499L114.511 83.277C114.511 83.3347 114.569 83.5652 114.627 83.9686C114.799 83.7957 115.03 83.6228 115.318 83.4499C115.606 83.277 115.895 83.2194 116.183 83.2194C116.874 83.2194 117.393 83.3923 117.739 83.7381C118.085 84.0839 118.258 84.6026 118.258 85.2366C118.258 86.2741 117.969 87.1386 117.393 87.8302C116.817 88.5219 116.067 88.8677 115.145 88.8677C114.915 88.8677 114.684 88.81 114.454 88.7524C114.05 88.7524 113.935 88.6371 113.82 88.5219ZM113.993 87.715C114.05 87.8302 114.165 87.8879 114.338 88.0031C114.511 88.0608 114.684 88.1184 114.857 88.1184C115.549 88.1184 116.125 87.8879 116.529 87.3691C116.932 86.9081 117.105 86.2164 117.105 85.4095C117.105 84.9484 116.99 84.6026 116.759 84.3721C116.529 84.1416 116.183 84.0263 115.722 84.0263C115.549 84.0263 115.318 84.0839 115.03 84.2568C114.742 84.3721 114.569 84.545 114.454 84.6603L113.993 87.715Z" fill="#CBCFCE"/>
<path d="M122.811 81.2022C122.984 81.2022 123.156 81.2598 123.272 81.3751C123.387 81.4903 123.445 81.6632 123.445 81.8361C123.445 82.009 123.387 82.182 123.272 82.2972C123.156 82.4125 122.984 82.4701 122.811 82.4701C122.638 82.4701 122.465 82.4125 122.35 82.2972C122.234 82.182 122.177 82.009 122.177 81.8361C122.177 81.6632 122.234 81.4903 122.35 81.3751C122.465 81.2598 122.638 81.2022 122.811 81.2022ZM121.255 88.81L122.061 84.1416H121.312L121.485 83.3347H123.156L122.177 88.81H121.255Z" fill="#CBCFCE"/>
<path d="M129.612 88.81L130.188 85.6401C130.246 85.3519 130.246 85.1214 130.246 84.9484C130.246 84.3721 129.958 84.0839 129.324 84.0839C129.093 84.0839 128.862 84.1415 128.574 84.3145C128.286 84.4297 128.113 84.6026 127.94 84.7755L127.249 88.8677H126.269L127.018 84.7179C127.018 84.6026 127.018 84.4874 127.018 84.3721C127.018 84.0263 126.961 83.7381 126.903 83.4499L127.825 83.277C127.94 83.7957 127.94 84.0263 127.94 84.0839C128.344 83.5652 128.978 83.277 129.727 83.277C130.707 83.277 131.226 83.7957 131.226 84.7755C131.226 84.9484 131.226 85.179 131.168 85.4672L130.592 88.8677H129.612V88.81Z" fill="#CBCFCE"/>
<path d="M133.762 90.3085L134.223 89.6169C134.857 89.9051 135.375 90.078 135.779 90.078C136.24 90.078 136.586 90.0204 136.931 89.8475C137.22 89.6746 137.393 89.444 137.393 89.1558C137.393 88.9829 137.335 88.8677 137.22 88.81C137.104 88.6947 136.931 88.6371 136.701 88.5795L135.779 88.4066C135.433 88.2913 135.26 88.1184 135.26 87.8302C135.26 87.5997 135.548 87.3691 136.125 87.1386H135.952C135.548 87.1386 135.202 86.9657 134.914 86.6775C134.626 86.3893 134.453 86.0435 134.453 85.5824C134.453 84.8908 134.684 84.2568 135.145 83.8534C135.606 83.3923 136.182 83.1617 136.931 83.1617C137.45 83.1617 137.854 83.277 138.142 83.5076L138.603 82.9888L139.122 83.5652L138.603 84.0839C138.718 84.1992 138.776 84.4297 138.776 84.7179C138.776 85.2943 138.603 85.813 138.315 86.2164C138.027 86.6199 137.623 86.9081 137.162 87.081C136.701 87.2539 136.47 87.4268 136.47 87.542C136.47 87.6573 136.528 87.7149 136.643 87.7149C136.701 87.7149 136.759 87.7149 136.874 87.7149C136.989 87.7149 137.047 87.7149 137.104 87.7149C137.969 87.7149 138.372 88.1184 138.372 88.8677C138.372 89.444 138.084 89.9627 137.565 90.3085C137.047 90.6544 136.413 90.8273 135.663 90.8273C134.799 90.9425 134.223 90.7696 133.762 90.3085ZM136.759 84.0263C136.355 84.0263 136.009 84.1992 135.779 84.4874C135.548 84.7755 135.375 85.179 135.375 85.5824C135.375 86.3317 135.663 86.6775 136.24 86.6775C136.643 86.6775 136.989 86.5046 137.277 86.1012C137.565 85.7553 137.738 85.3519 137.738 84.8908C137.738 84.6026 137.681 84.3721 137.508 84.2568C137.277 84.0839 137.047 84.0263 136.759 84.0263Z" fill="#CBCFCE"/>
<path d="M149.15 83.5076L148.977 84.3145C148.747 84.1416 148.401 84.0263 147.997 84.0263C147.363 84.0263 146.845 84.2568 146.499 84.7755C146.095 85.2943 145.923 85.8706 145.923 86.6199C145.923 87.081 146.038 87.4268 146.326 87.6573C146.557 87.9455 146.845 88.0608 147.191 88.0608C147.709 88.0608 148.17 87.8879 148.631 87.5997L148.516 88.5795C148.055 88.7524 147.594 88.8677 147.075 88.8677C146.384 88.8677 145.865 88.6948 145.519 88.2913C145.173 87.8879 145 87.3691 145 86.7351C145 85.6977 145.289 84.8332 145.865 84.1992C146.441 83.5076 147.191 83.2194 148.055 83.2194C148.401 83.2194 148.804 83.3347 149.15 83.5076Z" fill="#CBCFCE"/>
<path d="M156.758 83.6805L156.066 86.8504C156.066 86.9657 156.009 87.1386 156.009 87.3115C156.009 87.8302 156.066 88.3489 156.239 88.81H155.259C155.202 88.6948 155.144 88.5219 155.086 88.2337C154.913 88.4066 154.683 88.5795 154.395 88.6948C154.107 88.81 153.761 88.8677 153.415 88.8677C152.896 88.8677 152.435 88.6948 152.147 88.4066C151.859 88.0608 151.686 87.6573 151.686 87.0233C151.686 86.0435 151.974 85.1214 152.55 84.3721C153.127 83.6228 153.876 83.2194 154.856 83.2194C155.72 83.2194 156.354 83.3923 156.758 83.6805ZM155.663 84.2568C155.547 84.0839 155.259 84.0263 154.741 84.0263C154.222 84.0263 153.703 84.3145 153.3 84.8908C152.896 85.4672 152.666 86.1588 152.666 87.0233C152.666 87.7726 153.012 88.1184 153.646 88.1184C153.991 88.1184 154.28 87.9455 154.568 87.5997C154.856 87.2539 155.086 86.7928 155.202 86.2741L155.663 84.2568Z" fill="#CBCFCE"/>
<path d="M163.328 84.3145C163.098 84.1416 162.867 84.0839 162.637 84.0839C162.291 84.0839 161.945 84.2568 161.657 84.545C161.369 84.8908 161.138 85.2366 161.08 85.6977L160.504 88.81H159.467L160.446 83.3347H161.426L161.253 84.1992C161.714 83.5652 162.291 83.2194 162.982 83.2194C163.098 83.2194 163.271 83.2194 163.559 83.277L163.328 84.3145Z" fill="#CBCFCE"/>
<path d="M167.19 84.0839H166.556L166.729 83.3347H167.363L167.593 82.182L168.688 81.7785L168.342 83.3347H169.841L169.668 84.0839H168.169L167.593 86.7928C167.535 87.0233 167.535 87.1962 167.535 87.3115C167.535 87.8302 167.766 88.1184 168.285 88.1184C168.515 88.1184 168.803 88.0608 169.092 87.9455L169.034 88.81C168.746 88.9253 168.285 88.9829 167.708 88.9829C167.305 88.9829 167.017 88.8677 166.786 88.6371C166.556 88.4066 166.44 88.0608 166.44 87.6573C166.44 87.5421 166.44 87.4268 166.498 87.3115L167.19 84.0839Z" fill="#CBCFCE"/>
<path d="M175.374 88.4642L175.893 87.5421C176.008 87.6573 176.238 87.7726 176.469 87.8879C176.699 88.0031 176.93 88.0608 177.103 88.0608C177.391 88.0608 177.679 88.0032 177.852 87.8302C178.025 87.6573 178.14 87.4268 178.14 87.1386C178.14 87.0233 178.083 86.8504 177.967 86.7352C177.852 86.6199 177.679 86.5046 177.449 86.3317L176.699 85.9283C176.469 85.813 176.296 85.6401 176.181 85.4672C176.065 85.2943 176.008 85.0637 176.008 84.8332C176.008 84.3145 176.181 83.911 176.584 83.6229C176.988 83.3347 177.449 83.1618 178.025 83.1618C178.429 83.1618 178.89 83.277 179.466 83.5652L179.005 84.4874C178.659 84.1992 178.313 84.0263 177.91 84.0263C177.679 84.0263 177.449 84.0839 177.218 84.1992C177.045 84.3145 176.93 84.4874 176.93 84.7179C176.93 84.8908 176.988 85.0061 177.103 85.1214C177.218 85.2366 177.391 85.3519 177.679 85.5248L178.371 85.9283C178.601 86.0435 178.774 86.2165 178.89 86.3894C179.005 86.5623 179.063 86.7928 179.063 87.0233C179.063 87.5997 178.832 88.0608 178.429 88.4066C178.025 88.7524 177.449 88.9253 176.815 88.9253C176.296 88.9253 175.777 88.7524 175.374 88.4642Z" fill="#CBCFCE"/>
<path d="M182.06 86.7928C182.06 85.813 182.348 84.9484 182.924 84.2568C183.501 83.5652 184.25 83.2194 185.115 83.2194C185.806 83.2194 186.267 83.3923 186.613 83.7381C186.959 84.0839 187.132 84.6026 187.132 85.2943C187.132 85.813 187.017 86.3893 186.844 86.9081C186.613 87.4844 186.267 87.9455 185.806 88.2913C185.345 88.6948 184.769 88.8677 184.077 88.8677C183.443 88.8677 182.924 88.6948 182.579 88.2913C182.233 88.0031 182.06 87.4844 182.06 86.7928ZM183.097 86.7351C183.097 87.6573 183.501 88.1184 184.25 88.1184C184.826 88.1184 185.287 87.8302 185.633 87.2539C185.979 86.6775 186.152 86.0435 186.152 85.2943C186.152 84.4297 185.749 83.9686 184.999 83.9686C184.596 83.9686 184.25 84.0839 183.962 84.3721C183.674 84.6603 183.443 85.0061 183.328 85.4672C183.155 85.9283 183.097 86.3317 183.097 86.7351Z" fill="#CBCFCE"/>
<path d="M194.105 82.009C193.817 81.8938 193.644 81.8938 193.529 81.8938C192.895 81.8938 192.492 82.4125 192.376 83.3923H193.644L193.587 84.0839H192.319L191.454 89.2711C191.397 89.7322 191.166 90.1357 190.763 90.4238C190.417 90.712 189.956 90.8849 189.437 91.0002L189.322 90.4238C189.552 90.3662 189.725 90.2509 189.956 90.0204C190.186 89.7898 190.302 89.5593 190.359 89.3287L191.281 84.1416H190.532L190.647 83.4499H191.397C191.685 81.9514 192.434 81.2022 193.644 81.2022C193.933 81.2022 194.163 81.2598 194.394 81.3751L194.105 82.009Z" fill="#CBCFCE"/>
<path d="M197.506 84.0839H196.872L197.045 83.3347H197.679L197.91 82.182L199.005 81.7785L198.659 83.3347H200.157L199.985 84.0839H198.486L197.91 86.7928C197.852 87.0233 197.852 87.1962 197.852 87.3115C197.852 87.8302 198.083 88.1184 198.601 88.1184C198.832 88.1184 199.12 88.0608 199.408 87.9455L199.351 88.81C199.062 88.9253 198.601 88.9829 198.025 88.9829C197.621 88.9829 197.333 88.8677 197.103 88.6371C196.872 88.4066 196.757 88.0608 196.757 87.6573C196.757 87.5421 196.757 87.4268 196.815 87.3115L197.506 84.0839Z" fill="#CBCFCE"/>
<path d="M207.765 88.9253H207.534L206.497 85.3519L204.307 88.9253H204.076L203.039 83.3347H204.019L204.595 86.7928L206.612 83.3347H206.843L207.823 86.8505L209.552 83.3347H210.531C209.494 85.5249 208.514 87.4268 207.765 88.9253Z" fill="#CBCFCE"/>
<path d="M217.794 83.6805L217.102 86.8504C217.102 86.9657 217.045 87.1386 217.045 87.3115C217.045 87.8302 217.102 88.3489 217.275 88.81H216.295C216.238 88.6948 216.18 88.5219 216.123 88.2337C215.95 88.4066 215.719 88.5795 215.431 88.6948C215.143 88.81 214.797 88.8677 214.451 88.8677C213.932 88.8677 213.471 88.6948 213.183 88.4066C212.895 88.0608 212.722 87.6573 212.722 87.0233C212.722 86.0435 213.01 85.1214 213.587 84.3721C214.163 83.6228 214.912 83.2194 215.892 83.2194C216.757 83.2194 217.391 83.3923 217.794 83.6805ZM216.699 84.2568C216.584 84.0839 216.295 84.0263 215.777 84.0263C215.258 84.0263 214.739 84.3145 214.336 84.8908C213.932 85.4672 213.702 86.1588 213.702 87.0233C213.702 87.7726 214.048 88.1184 214.682 88.1184C215.027 88.1184 215.316 87.9455 215.604 87.5997C215.892 87.2539 216.123 86.7928 216.238 86.2741L216.699 84.2568Z" fill="#CBCFCE"/>
<path d="M224.364 84.3145C224.134 84.1416 223.903 84.0839 223.673 84.0839C223.327 84.0839 222.981 84.2568 222.693 84.545C222.405 84.8908 222.174 85.2366 222.116 85.6977L221.54 88.81H220.56L221.54 83.3347H222.52L222.347 84.1992C222.808 83.5652 223.384 83.2194 224.076 83.2194C224.191 83.2194 224.364 83.2194 224.652 83.277L224.364 84.3145Z" fill="#CBCFCE"/>
<path d="M228.226 86.2165C228.168 86.3894 228.168 86.5623 228.168 86.6775C228.168 87.1386 228.284 87.4844 228.572 87.715C228.802 87.9455 229.148 88.0608 229.609 88.0608C230.013 88.0608 230.416 87.8879 230.82 87.5997L230.704 88.5795C230.186 88.7524 229.667 88.8677 229.263 88.8677C227.88 88.8677 227.131 88.0608 227.131 86.5046C227.131 85.5825 227.419 84.7756 227.995 84.1416C228.572 83.5076 229.321 83.1618 230.243 83.1618C230.762 83.1618 231.223 83.277 231.569 83.5076C231.915 83.7381 232.03 84.0839 232.03 84.4874C232.03 85.0637 231.799 85.5825 231.281 85.8706C230.762 86.2164 230.186 86.3894 229.436 86.3894C228.975 86.5046 228.514 86.3894 228.226 86.2165ZM228.399 85.5248C228.629 85.6401 228.975 85.6977 229.321 85.6977C229.84 85.6977 230.301 85.6401 230.647 85.4672C230.992 85.2943 231.165 85.0637 231.165 84.7179C231.165 84.3145 230.877 84.0839 230.301 84.0839C229.321 84.0263 228.745 84.545 228.399 85.5248Z" fill="#CBCFCE"/>
</g>
</svg>
