<svg width="306" height="100" viewBox="0 0 306 100" fill="none" xmlns="http://www.w3.org/2000/svg">
<g opacity="0.8">
<path fill-rule="evenodd" clip-rule="evenodd" d="M43.5937 33.088C44.619 30.7071 47.1822 29.0014 49.8552 29.0014C70.0314 29.0014 90.2075 29.0014 110.42 29.0014C112.178 28.9659 113.936 29.6055 115.217 30.7427C116.682 32.022 117.524 33.9409 117.487 35.8599C117.487 43.358 117.487 50.8561 117.487 58.3897C117.451 61.7656 114.412 64.8217 110.933 64.8928C103.573 64.9283 96.2127 64.8928 88.8527 64.8928C89.8413 67.2737 90.83 69.6191 91.8187 72C87.4246 69.6546 83.1037 67.2382 78.6731 64.9283C69.0061 64.8573 59.3025 64.9283 49.5989 64.8928C46.1203 64.7862 43.081 61.7656 43.0444 58.3897C43.0078 51.0337 43.0444 43.6778 43.0078 36.3574C43.0078 35.2558 43.1177 34.1186 43.5937 33.088Z" fill="#945C87"/>
<path fill-rule="evenodd" clip-rule="evenodd" d="M73.1811 33.623C74.2796 32.4858 76.4034 32.8412 77.2456 34.156C77.685 34.8312 77.7216 35.7551 77.3555 36.4658C75.8175 39.4509 75.1584 42.7557 74.5726 45.9895C73.8768 50.2183 73.291 54.5181 73.5107 58.818C73.5839 59.9196 73.0346 61.2344 71.8263 61.5187C70.6911 61.7675 69.6292 61.0212 68.8969 60.2394C65.6013 56.7924 63.7338 52.3504 62.379 47.9084C61.0242 50.5026 59.6693 53.1322 58.3511 55.7264C57.4357 57.5032 56.447 59.3155 54.9823 60.7369C54.3598 61.3411 53.2979 61.8741 52.4923 61.27C51.284 60.2394 50.991 58.6048 50.4784 57.2189C48.5377 50.7158 47.4391 43.9995 46.304 37.3187C46.0477 36.2171 46.5237 34.8667 47.6588 34.4403C48.5743 34.1205 49.7827 34.0494 50.5516 34.7246C51.1009 35.1865 51.2473 35.9328 51.3572 36.608C52.1628 41.7962 53.0782 46.949 54.3964 52.0306C56.5935 47.9795 58.7905 43.9284 60.9875 39.8418C61.3171 39.2376 61.7199 38.6335 62.3058 38.2782C63.1113 37.7807 64.2831 37.8162 64.9788 38.5269C65.5281 39.0955 65.7478 39.9128 65.8943 40.6591C66.5534 43.9995 67.4322 47.3399 68.7138 50.5026C69.2631 45.7052 69.9588 40.8368 71.753 36.3237C72.1558 35.3642 72.522 34.4047 73.1811 33.623ZM85.5944 36.2171C87.9745 35.9328 90.5377 36.7146 92.1489 38.4559C93.4671 39.9128 94.1994 41.7962 94.4558 43.6797C94.8585 46.9134 94.236 50.3249 92.6249 53.2033C91.7095 54.838 90.5377 56.4371 88.8533 57.3966C86.3999 58.8535 83.1044 58.6759 80.7243 57.1478C78.8202 55.8685 77.7583 53.7363 77.3189 51.6042C76.44 46.7357 77.9414 41.3343 81.7129 37.9584C82.8115 36.9989 84.1663 36.3948 85.5944 36.2171ZM86.0704 41.1921C84.9353 41.5475 84.2029 42.578 83.5804 43.502C82.0425 45.9184 81.6031 49.0811 82.8481 51.6753C83.1776 52.3504 83.6903 53.0967 84.5325 53.2388C85.4113 53.381 86.2169 52.8835 86.8394 52.3504C88.2308 51.1778 88.9265 49.4365 89.2927 47.6952C89.6589 45.7407 89.4758 43.573 88.304 41.8673C87.828 41.2277 86.876 40.9434 86.0704 41.1921ZM104.599 36.2171C106.906 35.9328 109.432 36.6435 111.043 38.3137C112.508 39.8418 113.277 41.8673 113.497 43.9284C113.826 47.0556 113.24 50.3249 111.702 53.0967C110.787 54.7669 109.579 56.4016 107.821 57.3966C105.478 58.7825 102.328 58.6403 99.985 57.2899C98.4104 56.366 97.3485 54.8024 96.726 53.1322C95.0782 48.0506 96.4697 42.0805 100.278 38.2426C101.523 37.1766 103.024 36.3948 104.599 36.2171ZM105.111 41.1921C103.866 41.6186 103.134 42.7913 102.475 43.8218C101.083 46.2027 100.717 49.2943 101.999 51.8174C102.328 52.5281 102.951 53.2033 103.793 53.2388C104.709 53.2744 105.514 52.7058 106.173 52.1017C107.601 50.7513 108.224 48.8324 108.444 46.949C108.663 45.2077 108.37 43.3243 107.308 41.8318C106.869 41.2277 105.917 40.9434 105.111 41.1921Z" fill="white"/>
<path fill-rule="evenodd" clip-rule="evenodd" d="M130.01 36.8905C132.024 36.4641 134.148 36.4996 136.162 36.9616C136.162 38.5607 136.162 40.1599 136.162 41.759C134.514 41.3681 132.647 41.0127 131.072 41.759C129.168 42.6829 128.106 44.7795 128.106 46.7695C127.996 48.7596 128.692 50.9983 130.523 52.1355C132.207 53.2016 134.368 52.9884 136.199 52.4909C136.199 54.09 136.199 55.6891 136.199 57.2882C133.745 57.9634 131.072 57.8923 128.692 57.0395C125.836 56.0089 123.566 53.5925 122.687 50.7496C122.028 48.5819 121.955 46.2721 122.467 44.0688C123.309 40.5508 126.385 37.6723 130.01 36.8905ZM144.877 36.6418C147.367 36.3575 150.077 36.7484 152.091 38.2764C154.031 39.7334 154.983 42.1143 155.35 44.3886C155.679 46.9117 155.606 49.5414 154.8 51.9578C154.105 54.0189 152.677 55.9378 150.626 56.8973C148.539 57.8568 146.085 57.9279 143.852 57.4304C141.801 56.9684 139.97 55.6536 138.945 53.8412C137.517 51.4248 137.261 48.5464 137.371 45.8101C137.48 43.4647 138.103 41.0127 139.714 39.2004C141.032 37.7434 142.936 36.855 144.877 36.6418ZM145.646 41.2259C144.584 41.4747 143.962 42.5052 143.705 43.4647C143.193 45.3836 143.266 47.3737 143.412 49.3281C143.559 50.3942 143.669 51.5314 144.438 52.3842C145.463 53.5214 147.55 53.3793 148.466 52.2066C149.088 51.4603 149.271 50.5008 149.381 49.5769C149.601 47.9422 149.637 46.272 149.381 44.6374C149.198 43.6424 148.905 42.6118 148.173 41.8656C147.514 41.2259 146.525 41.0127 145.646 41.2259ZM243.304 36.9616C245.428 36.4286 247.662 36.4996 249.786 36.9261C249.822 38.5252 249.786 40.1243 249.822 41.759C248.211 41.3681 246.417 41.0127 244.842 41.6879C243.011 42.5052 241.913 44.3886 241.766 46.272C241.547 48.4042 242.133 50.8207 244.073 52.0644C245.758 53.2016 247.955 52.9884 249.822 52.4553C249.786 54.0544 249.859 55.6891 249.786 57.2882C247.186 57.9279 244.33 57.8568 241.876 56.8263C239.167 55.6891 237.043 53.2726 236.274 50.5008C235.688 48.3687 235.615 46.0944 236.164 43.9267C236.97 40.5863 239.862 37.85 243.304 36.9616ZM158.609 37.1038C160.952 37.1038 163.332 37.1038 165.676 37.1038C166.518 40.7995 167.323 44.5308 168.056 48.2621C168.715 44.4952 169.63 40.7995 170.546 37.1038C172.963 37.1038 175.379 37.1038 177.796 37.1038C178.748 43.8201 179.663 50.5364 180.579 57.2171C178.748 57.2171 176.881 57.2171 175.05 57.2171C174.537 52.633 174.098 48.0133 173.548 43.4292C172.413 48.0133 171.242 52.633 170.106 57.2171C168.861 57.2171 167.58 57.2171 166.335 57.2171C165.126 52.633 163.955 48.0133 162.71 43.3936C162.234 47.9778 161.758 52.5975 161.282 57.2171C159.524 57.2171 157.766 57.2171 155.972 57.2171C156.851 50.5364 157.73 43.8201 158.609 37.1038ZM183.948 37.1038C186.291 37.1038 188.671 37.1038 191.015 37.1038C191.857 40.7995 192.663 44.5308 193.395 48.2621C194.091 44.5308 194.97 40.7995 195.885 37.1038H203.099C204.051 43.8201 204.966 50.5364 205.881 57.2171C204.051 57.2171 202.183 57.2171 200.352 57.2171C199.84 52.633 199.364 48.0133 198.851 43.4292C197.716 48.0133 196.581 52.633 195.409 57.2171C194.164 57.2171 192.882 57.2171 191.637 57.2171C190.429 52.5975 189.221 48.0133 188.012 43.3936C187.536 48.0133 187.06 52.5975 186.584 57.2171C184.827 57.2171 183.069 57.2171 181.275 57.2171C182.19 50.5364 183.069 43.8201 183.948 37.1038ZM207.493 37.1748C211.264 37.1037 215.072 37.1748 218.844 37.1393C218.844 38.5607 218.844 39.9822 218.844 41.4391C216.94 41.4747 215.036 41.4391 213.132 41.4391C213.132 42.6829 213.132 43.8911 213.132 45.1349C214.779 45.1349 216.427 45.1349 218.075 45.1349C218.075 46.5208 218.075 47.9067 218.075 49.2926C216.427 49.2926 214.779 49.2926 213.132 49.2926C213.132 50.5008 213.132 51.7446 213.132 52.9884C215.036 52.9884 216.977 52.9884 218.881 52.9884C218.881 54.4098 218.881 55.8312 218.881 57.2882C215.109 57.2882 211.301 57.2882 207.529 57.2882C207.493 50.5719 207.566 43.8911 207.493 37.1748ZM220.455 37.1038C222.835 37.1038 225.179 37.0682 227.559 37.1038C229.793 37.1748 232.173 37.7079 233.82 39.2359C235.322 40.5863 235.834 42.8251 235.249 44.7085C234.773 46.2365 233.601 47.4803 232.136 48.1555C233.601 51.176 235.102 54.1966 236.603 57.2171C234.626 57.2171 232.649 57.2171 230.708 57.2171C229.17 54.1255 227.669 51.0339 226.094 47.9778C226.058 51.0694 226.094 54.1611 226.094 57.2171C224.227 57.2171 222.359 57.2171 220.492 57.2171C220.455 50.5364 220.455 43.8201 220.455 37.1038ZM226.058 40.9772C226.058 42.5763 226.058 44.1754 226.058 45.7745C227.083 45.7035 228.181 45.6679 229.024 45.0638C230.012 44.3531 229.902 42.8961 229.28 41.9722C228.511 41.0838 227.156 41.0838 226.058 40.9772ZM251.397 37.1393C255.168 37.1393 258.94 37.1393 262.712 37.1393C262.712 38.5607 262.712 40.0177 262.712 41.4391C260.807 41.4391 258.867 41.4391 256.963 41.4391C256.963 42.6829 256.963 43.8911 256.963 45.1349C258.61 45.1349 260.258 45.1349 261.906 45.1349C261.906 46.5208 261.906 47.9067 261.906 49.2926H256.963C256.963 50.5364 256.963 51.7446 256.963 52.9884C258.903 52.9884 260.807 52.9884 262.748 52.9884C262.748 54.4098 262.748 55.8312 262.748 57.2882C258.977 57.2882 255.168 57.2882 251.397 57.2882C251.36 50.5364 251.397 43.8201 251.397 37.1393Z" fill="black"/>
</g>
</svg>
